<?xml version="1.0" encoding="utf-8"?>
<!-- Generator: Adobe Illustrator 27.5.0, SVG Export Plug-In . SVG Version: 6.00 Build 0)  -->
<svg version="1.1" xmlns="http://www.w3.org/2000/svg" xmlns:xlink="http://www.w3.org/1999/xlink" x="0px" y="0px"
	 viewBox="0 0 6000 4000" style="enable-background:new 0 0 6000 4000;" xml:space="preserve">
<g id="Layer_2">
	<rect id="bg" style="fill:#FFFFFF;" width="6000" height="4000"/>
</g>
<g id="Layer_1">
	<g>
		<path d="M4384.069,1673.122c-98.528,2.312-98.34-168.871,1.714-158.225C4498.345,1522.708,4492.36,1668.531,4384.069,1673.122z
			 M4396.317,1559.811c-31.321-3.764-49.161,37.201-26.989,58.198C4407.965,1651.9,4460.829,1557.891,4396.317,1559.811z"/>
		<path d="M2533.925,575.548c1.076,88.084-129.884,89.131-145.471,7.634C2367.947,468.892,2532.555,469.758,2533.925,575.548z
			 M2459.437,543.72c-52.793,14.521,1.981,80.886,32.971,39.872C2505.228,565.88,2478.459,543.222,2459.437,543.72z"/>
		<path d="M1990.663,2409.702c0.993,77.507-121.764,95.374-141.929,17.917C1821.092,2331.242,1993.855,2297.132,1990.663,2409.702z
			 M1946.497,2397.919c-2.741-31.873-29.295-29.173-49.536-11.384C1857.078,2434.837,1946.033,2461.377,1946.497,2397.919z"/>
		<path d="M4171.56,1365.624c-2.669,83.418-115.841,89.139-133.578,6.972C4025.291,1278.252,4167.329,1275.391,4171.56,1365.624z
			 M4106.537,1338.475c-26.173,4.426-33.222,42.46-1.553,45.115C4126.663,1380.083,4128.386,1343.445,4106.537,1338.475z"/>
		<path d="M2132.623,685.624c-42.547-0.571-71.017-29.485-67.853-64.505c1.364-44.763,49.207-52.43,84.386-59.363
			C2235.449,563.983,2207.179,688.72,2132.623,685.624z M2141.931,604.562c-4.302,1.552-13.538,4.15-22.083,8.204
			c-15.263,8.52-7.3,27.664,9.462,25.603C2147.952,639.398,2177.239,606.722,2141.931,604.562z"/>
		<path d="M2175.659,2733.845c-72.067,3.942-106.23-115.076-22.338-123.574C2232.972,2600.411,2267.569,2729.717,2175.659,2733.845z
			 M2189.235,2679.814c4.218-29.987-45.209-30.544-34.616-0.532C2163.761,2698.028,2183.5,2701.462,2189.235,2679.814z"/>
		<path d="M3103.961,2773.755c87.565-2.512,56.645,143.813-20.196,122.9C3018.179,2875.226,3026.362,2768.091,3103.961,2773.755z
			 M3112.232,2814.506c-18.459,3.378-42.919,25.071-20.698,40.183C3111.363,2862.053,3124.548,2831.364,3112.232,2814.506z"/>
		<path d="M4242.845,1031.544c105.501,2.902,58.95,145.066-26.772,114.424C4159.822,1119.156,4179.952,1030.933,4242.845,1031.544z
			 M4259.317,1073.084c-16.753-2.414-39.999,11.12-28.985,28.163C4245.569,1113.735,4268.167,1089.365,4259.317,1073.084z"/>
		<path d="M3881.287,636.211c-0.955,78.362-121.078,76.458-123.815-0.522C3749.839,557.755,3881.551,565.138,3881.287,636.211z
			 M3830.663,620.102c-14.533,2.221-37.062,9.802-23.444,27.557C3823.834,669.047,3862.935,630.951,3830.663,620.102z"/>
		<path d="M2858.799,2646.361c66.455-4.677,82.771,65.56,27.591,97.091C2805.937,2783.723,2763.392,2648.268,2858.799,2646.361z
			 M2878.789,2682.391c-13.782,2.786-35.565-0.28-32.292,16.762C2857.364,2715.214,2877.634,2702.734,2878.789,2682.391z"/>
		<path d="M3774.78,2227.575c-74.542-6.615-59.58-121.642,16.682-104.465C3864.234,2128.94,3833.367,2229.937,3774.78,2227.575z
			 M3787.706,2162.24c-20.14-0.41-24.025,7.118-17.009,18.258C3780.766,2184.201,3788.598,2173.591,3787.706,2162.24z"/>
		<path d="M2304.305,1059.658c0.397,72.631-100.157,75.779-104.933,4.984C2198.284,1004.105,2303.642,991.902,2304.305,1059.658z
			 M2251.749,1070.323c5.314,1.434,12.394-9.328,5.307-12.369C2251.273,1056.714,2244.499,1066.607,2251.749,1070.323z"/>
		<path d="M4186.269,1852.841c0.901,69.112-99.849,75.347-104.292,5.715C4076.514,1797.352,4185.291,1783.091,4186.269,1852.841z
			 M4130.322,1852.398c0.719,1.333,1.438,2.665,2.156,3.997c3.419-1.066,1.798-3.611,1.374-6.207
			C4132.681,1850.92,4131.511,1851.653,4130.322,1852.398z"/>
		<path d="M1614.217,1266.903c100.053-10.645,100.242,160.537,1.714,158.225C1507.64,1420.537,1501.656,1274.714,1614.217,1266.903z
			 M1630.672,1370.014c22.171-20.997,4.332-61.962-26.989-58.198C1539.171,1309.897,1592.035,1403.906,1630.672,1370.014z"/>
		<path d="M1793.841,1699.954c-4.443,69.633-105.193,63.397-104.292-5.715C1690.527,1624.489,1799.303,1638.75,1793.841,1699.954z
			 M1741.967,1691.585c-0.424,2.596-2.046,5.141,1.373,6.207c0.719-1.332,1.437-2.664,2.156-3.997
			C1744.307,1693.051,1743.137,1692.318,1741.967,1691.585z"/>
		<g>
			<path d="M2817.548,843.635c-4.185-138.041-15.827-276.26-14.976-413.763c-18.542-101.077,235.816-129.902,307.885-154.582
				c76.211-15.133,153.916-21.956,231.219-28.602c69.912-7.485,143.528-6.089,158.707,77.862
				c44.288,109.158,76.571,222.753,115.838,334.078c96.39,336.428,302.641,729.997,109.302,1067.173
				c-40.822,57.708-86.093,112.457-140.765,157.511c-17.37,12.61-42.031,18.194-35.69,45.065
				c16.168,269.166,92.847,531.41,137.688,796.998c10.76,27.795,11.924,125.467,37.449,129.653
				c113.522,14.429,227.912,20.937,341.093,38.107c41.458,10.833,93.673,8.011,123.682,42.521
				c14.777,16.064,7.631,41.153-9.96,48.76c-141.853,53.757-294.997,77.627-443.935,105.189
				c-193.428,32.899-385.909,88.072-582.927,90.838c-131.987-63.837,285.434-226.296,330.599-261.66
				c14.621-16.072,54.519-17.51,54.172-41.638c-21.727-117.419-43.985-234.769-66.205-352.101
				c-39.568-190.717-59.469-390.002-127.473-572.8c-3.954-6.375-8.911-9.959-16.244-10.615
				c-58.113-4.366-101.763-39.736-155.223-58.386c-27.297,295.142-130.789,561.51-440.826,648.758
				c-65.583,189.91-66.214,401.355-96.148,600.039c-13.518,112.847-26.279,225.786-40.848,338.5
				c-1.525,12.626,0.723,16.52,10.592,20.984c107.649,51.025,220.168,91.616,324.629,149.258
				c29.987,20.987,73.906,29.91,88.079,66.779c18.698,61.657-68.96,46.885-106.261,47.459
				c-62.804-6.604-126.036-9.162-188.81-15.975c-212.626-28.889-426.396-48.125-638.009-84.485
				c-39.763-11.462-166.679-11.75-139.597-76.308c11.154-16.963,27.147-28.419,46.412-33.199
				c135.049-36.799,273.708-54.813,411.306-78.944c10.982-1.929,15.179-6.153,16.583-17.013
				c23.92-191.794,50.759-383.206,75.704-574.861c2.606-66.84,51.235-339.457,11.165-374.884
				c-108.735-66.674-213.839-177.393-244.056-303.949c-85.247-290.418,22.021-591.831,96.035-873.405
				c38.427-150.411,68.857-304.874,125.941-449.569C2539.154,802.82,2730.563,854.549,2817.548,843.635z M2970.26,3715.568
				c-30.981-31.147-69.471-46.451-108.082-64.077c-84.159-34.951-166.646-73.576-248.532-113.536
				c-28.204-11.571-60.641-27.935-55.647-64.13c5.822-53.067,10.509-106.264,16.598-159.301
				c16.547-102.754,20.696-206.609,35.279-309.541c9.811-88.797,23.358-177.051,37.896-265.202
				c16.186-74.066,11.739-162.5,55.742-226.229c321.084-150.312,398.351-308.273,425.39-656.037
				c-101.3-65.27-163.717-171.821-207.356-281.765c-16.098-54.172-24.195-48.734-75.464-48.88
				c-162.222-5.045-332.689-32.991-471.056-120.099c-73.843,301.223-207.25,683.775,23.946,947.472
				c36.939,39.679,74.169,79.33,118.009,111.519c29.35,21.549,42.946,48.761,40.67,84.708
				c-20.073,308.3-55.17,618.346-111.284,921.788c-18.116,48.438-103.088,34.845-146.101,52.261
				c-101.88,29.234-215.84,20.954-310.782,69.221c178.409,59.638,373.664,57.829,559.154,87.325
				C2688.563,3692.453,2830.371,3732.992,2970.26,3715.568z M3176.445,3139.363c16.797,7.514,16.843,7.975,28.078,6.859
				c165.672-15.906,327.657-53.691,490.47-86.629c140.716-24.425,281.279-48.78,419.139-86.759
				c11.661-2.88,23.517-6.583,31.863-19.329c-131.182-40.576-271.198-32.618-405.93-57.988c-20.371-3.42-45.375-2.544-54.332-25.532
				c-46.929-138.419-59.654-286.989-94.452-429.01c-29.879-169.883-68.766-339.628-79.123-512.024
				c-2.387-32.023,23.757-51.233,44.353-71.157c65.486-68.355,133.37-136.594,170.269-225.41
				c79.588-219.037,12.781-456.686-53.264-670.427c-21.478-64.201-42.81-128.967-58.904-194.726
				c-2.787-7.693-4.01-17.457-12.943-20.258c-234.394,85.82-504.542,78.368-743.515,16.488c-5.099,34.138-4.58,58.582,2.09,86.653
				c79.63,34.532,313.336,23.413,306.556,139.064c17.62,252.958,2.673,508.297,10.254,762.149
				c193.679,116.728,443.959,0.93,514.958-205.315c10.76-24.907,38.741-20.446,31.737,8.524
				c-59.079,227.5-334.872,349.606-543.743,244.231c-9.784,27.939-8.733,31.441,12.04,44.157
				c45.707,25.319,92.612,48.71,141.967,66.569c60.27,15.821,62.519,91.175,79.517,141.369
				c35.84,168.927,78.76,336.847,102.223,508.034c16.077,106.447,43.594,211.159,56.454,318.16
				c5.445,59.094-78.441,68.686-115.471,99.368C3365.814,3034.523,3258.193,3068.248,3176.445,3139.363z M2839.378,441.142
				c-7.287,16.615-4.023,32.135-3.03,47.503c3.621,27.174-1,54.147,4.643,81.046c6.392,36.168-7.106,77.377,12.847,109.722
				c142.691-54.43,275.625-39.133,421.938-43.721c103.673,0.166,209.776,12.6,307.783,38.294
				c-43.247-115.759-68.896-241.432-126.964-350.804C3321.808,411.937,2998.39,474.31,2839.378,441.142z M2392.785,1340.064
				c154.569-30.3,310.423-3.183,465.95-0.946c-16.258-110.917-17.016-221.07-29.252-330.224
				c-39.091-16.177-82.887-11.961-124.151-20.744c-70.526-9.238-136.065-34.722-199.399-66.374
				c-31.456,60.954-39.647,131.809-60.843,197.105C2428.825,1194.877,2401.109,1260.855,2392.785,1340.064z M3137.221,1426.09
				c3.61-95.583,0.57-190.191,0.433-286.388c-9.167-46.153,12.043-98.63-8.969-141.358c-82.057,26.704-170.524,18.219-254.76,14.526
				c-2.182,106.73,10.489,227.367,32.408,332.825C2988.241,1363.206,3074.06,1356.811,3137.221,1426.09z M3571.372,719.573
				c-106.181-68.782-588-70.726-692.81-1.176C3037.781,789.95,3408.645,784.959,3571.372,719.573z M2885.65,1485.564
				c-3.606-19.529-10.566-108.992-30.314-109.907c-49.24-4.367-98.642-8.188-148-10.14c-92.965-1.427-186.506-9.145-278.407,8.177
				c-4.523,0.601-9.805,1.526-9.492,8.23C2493.916,1447.631,2794.605,1502.706,2885.65,1485.564z M2847.882,402.398
				c93.079,41.296,527.585-33.826,585.459-114.97C3301.417,263.902,2957.99,325.828,2847.882,402.398z M3136.391,1498.417
				c-62.28,15.394-123.149,24.542-186.711,28.935c18.409,87.711,100.493,228.149,180.579,271.248
				c6.258-27.104,6.234-27.079-9.781-42.279c-26.031-19.645-27.13-50.67,12.809-36.722
				C3135.243,1683.193,3144.758,1530.104,3136.391,1498.417z M2524.994,886.68c87.167,57.842,197.346,67.488,298.793,80.811
				c7.772-8.794,1.725-76.862-8.021-83.227C2733.466,879.338,2599.548,856.213,2524.994,886.68z M2862.499,894.559
				c3.357,20.427-10.043,73.372,15.924,80.182c79.462-0.274,166.559,21.461,239.505-16.62
				c-26.645-21.784-56.966-24.674-87.749-34.475C2975.232,912.441,2917.901,893.028,2862.499,894.559z M3122.752,1459.291
				c-24.809-40.839-170.635-87.336-211.213-69.096c9.026,31.648,8.865,66.832,25.659,96.906
				C2999.642,1484.268,3061.24,1481.29,3122.752,1459.291z"/>
			<path d="M3028.245,2124.982c26.148,67.709-125.916,220.629-182.907,257.251c-162.558,109.494-397.135,11.958-479.493-154.301
				c-6.863-13.034-24.987-38.779-9.591-49.58c6.061-3.662,13.337-1.617,19.854,6.864c8.866,11.539,17.441,23.341,25.474,35.472
				c88.168,135.39,277.312,213.316,423.363,123.519C2916.936,2295.494,2965.159,2203.527,3028.245,2124.982z"/>
			<path d="M3674.877,1375.24c3.318-187.107-75.462-359.423-122.393-536.85c16.111-30.537,39.695,30.904,46.051,44.162
				c65.596,161.277,122.568,331.092,111.365,507.532c0.333,17.083-11.853,79.074-34.595,46.186
				C3673.882,1416.258,3675.401,1395.482,3674.877,1375.24z"/>
			<path d="M3504.811,574.622c-10.248,19.792-25.368,10.474-31.218-6.723c-8.316-27.4-69.337-142.564-35.89-155.374
				C3465.221,407.265,3493.623,547.404,3504.811,574.622z"/>
			<path d="M2455.439,1225.766c8.845-26.829,30.799-171.63,60.799-166.588c25.591,16.317-29.317,134.994-32.364,168.277
				C2479.4,1252.441,2453.686,1255.373,2455.439,1225.766z"/>
		</g>
	</g>
</g>
</svg>
