<?xml version="1.0" encoding="utf-8"?>
<!-- Generator: Adobe Illustrator 27.5.0, SVG Export Plug-In . SVG Version: 6.00 Build 0)  -->
<svg version="1.1" xmlns="http://www.w3.org/2000/svg" xmlns:xlink="http://www.w3.org/1999/xlink" x="0px" y="0px"
	 viewBox="0 0 3000 4000" style="enable-background:new 0 0 3000 4000;" xml:space="preserve">
<g id="Ñëîé_2">
	<rect style="fill:#FFFFFF;" width="3000" height="4000"/>
</g>
<g id="Ñëîé_1">
	<g>
		<g>
			<path d="M1272.823,3113.49c-0.629-23.097-22.532-36.715-40.658-46.771c-33.646-18.158-71.456-26.665-105.611-43.668
				c-18.351-8.944-35.2-20.804-50.173-34.65c-11.881-10.921-22.933-22.863-32.171-36.125
				c-11.746-16.752-20.805-35.227-28.633-54.084c-15.398-37.423-23.532-77.404-28.775-117.402
				c-3.516-27.364-5.245-54.946-6.178-82.523c-1.402-68.14,1.125-136.328,3.934-204.403c1.784-37.02,3.526-74.116,7.934-110.929
				c0.451-3.497,0.755-7.216,1.131-10.812c0.811-7.762-7.516-8.59-8.648-1.59c-1.677,10.368-2.921,21.76-3.913,32.687
				c-6.014,71.092-8.093,142.466-9.609,213.776c-0.981,52.464-0.812,105.065,5.242,157.253
				c4.485,37.219,11.463,74.322,23.623,109.846c9.591,26.51,21.425,52.435,37.746,75.517c8.465,11.628,18.104,22.351,28.542,32.222
				c16.486,15.927,35.33,29.435,55.938,39.508c35.076,17.53,74.057,26.043,108.405,45.177c14.627,8.824,34.495,20.473,32.493,40.312
				c-1.594,9.864-10.346,17.867-18.781,22.92c-12.657,7.625-27.13,11.254-41.481,14.205c-24.732,5.087-50.559,6.729-75.987,7.946
				c-96.597,4.738-193.628-2.525-289.267-16.688c-52.689-8.335-105.949-17.374-155.552-37.685
				c-15.748-7.082-31.773-14.421-43.464-27.662c-23.099-26.757,8.461-50.038,31.458-61.927
				c12.642-6.749,26.156-11.656,39.763-16.068c44.358-14.252,90.268-24.847,136.533-31.482c29.584-4.145,60.086-6.959,89.53-0.429
				c4.232,9.823,10.982,18.554,19.29,25.284c3.803,3.024,8.074,5.925,13.031,6.462c4.318,0.465,9.08-1.162,11.67-4.769
				c4.394-5.468,2.274-12.453-1.966-17.298c-8.44-9.769-23.142-14.037-35.2-17.52c-4.292-11.69-5.58-24.209-6.268-36.567
				c-1.221-74.23,3.143-148.47,6.526-222.609c6.01-115.204,11.194-231.198,34.981-344.388c50.497,2.22,101.141,2.672,151.632,0.233
				c18.816-1.077,37.491-4.298,55.319-10.494c10.019-3.471,19.465-8.581,28.462-14.156c10.911-6.88,20.995-14.998,30.007-24.208
				c26.406-26.907,41.595-62.805,50.963-98.846c9.133-36.006,13.519-73.057,15.764-110.086c2.029-35.034,2.061-70.169,1.176-105.243
				c-4.414-145.982-19.15-291.421-32.343-436.801c-6.994-71.115-13.258-142.351-23.531-213.085
				c-3.531-22.062-7.556-44.792-19.339-64.139c-16.51-27.189-44.432-45.125-72.952-57.821
				c-22.237-10.009-46.031-16.009-69.965-20.33c-19.669-3.576-39.767-5.505-59.768-5.534c-20.253-0.136-40.434,1.844-60.455,4.804
				c-12.137,1.804-24.305,3.608-36.259,6.408c-23.497,5.587-64.023,19.288-66.583,46.489c-1.924,20.443,24.099,33.115,41.605,38.258
				c23.161,6.804,47.11,10.468,70.993,13.687c-21.749,27.018-37.976,57.969-52.163,89.5
				c-17.361,39.003-31.415,79.401-43.954,120.187c-23.711,78.712-44.058,158.421-63.169,238.364
				c-27.281,120.74-56.69,241.624-68.805,365.043c-2.422,32.245-6.707,65.944,4.315,97.092
				c4.737,13.203,11.357,25.916,20.644,36.502c17.409,19.379,41.444,31.783,65.872,39.993
				c36.474,11.982,75.004,14.492,113.157,14.173c8.031,0.046,16.057-0.414,24.003-1.598c-3.2,8.916-5.87,18.02-8.259,27.187
				c-1.238,4.853-2.653,9.671-3.395,14.64c-0.092,0.075-0.147,0.119-0.239,0.194c-62.001-4.13-132.679-9.397-186.858-42.219
				c-30.531-18.158-50.157-44.727-55.754-80.1c-2.079-13.721-2.483-27.619-2.6-41.476c0.029-22.677,1.43-45.34,3.852-67.885
				c2.996-27.791,7.09-55.446,11.823-82.989c32.597-185.519,81.859-367.547,124.705-550.848
				c9.645-40.138,20.609-81.725,28.267-122.022c1.121-8.399-6.826-9.189-8.745-0.837c-1.874,7.516-3.422,15.119-5.108,22.679
				c-38.435,165.385-80.726,329.881-117.751,495.596c-17.216,80.473-34.27,161.246-42.934,243.164
				c-2.923,30.394-4.507,61.063-2.262,91.554c1.079,13.21,3.257,26.405,8.231,38.79c6.252,15.421,14.535,30.136,26.698,41.67
				c54.183,51.899,144.815,59.329,216.407,64.012c-28.01,135.673-30.958,274.84-38.148,412.753
				c-1.721,40.57-2.963,81.158-3.564,121.76c-0.075,22.476-0.886,45.41,5.302,67.244c-29.888-5.36-60.455-2.473-90.304,1.94
				c-30.995,4.531-61.735,10.737-91.993,18.852c-15.063,3.97-30.05,8.223-44.84,13.123c-9.744,3.165-19.405,6.62-28.726,10.892
				c-3.155,1.453-6.445,2.731-9.315,4.67c-16.781,8.387-34.135,19.816-42.554,37.192c-7.458,15.778-1.193,31.616,10.656,43.205
				c9.464,9.454,21.393,15.881,33.264,21.796c17.674,8.28,36.189,14.667,54.967,19.944c29.621,8.421,59.921,14.177,90.262,19.313
				c61.85,10.051,124.262,16.945,186.835,20.303c50.186,2.317,100.536,1.911,150.673-1.29c19.831-1.363,39.675-3.573,59.089-7.95
				c12.517-2.766,24.952-6.395,36.214-12.644C1259.972,3141.98,1273.073,3129.553,1272.823,3113.49z M950.963,2974.162
				c5.517,2.019,11.093,4.147,15.938,7.528c2.726,2.174,6.619,5.024,6.514,8.355c-0.078,2.474-3.296,2.901-5.267,2.208
				c-3.187-1.092-5.791-3.307-8.361-5.42c-4.534-3.888-8.402-8.511-11.54-13.583C949.159,2973.537,950.07,2973.827,950.963,2974.162
				z M978.085,2298.321c-16.609,1.817-33.401,0.844-50.069,0.485c-22.719-0.558-45.307-3.833-67.274-9.649
				c-11.774-3.078-24.383-7.413-35.434-12.99c-30.878-15.252-49.13-33.635-59.272-67.024c-3.602-12.1-4.667-24.775-4.745-37.354
				c0.273-31.241,3.747-62.355,7.565-93.332c14.901-110.517,40.611-219.272,65.522-327.872
				c21.431-87.963,43.357-175.911,71.387-262.174c11.89-35.557,25.109-70.739,41.375-104.545
				c12.911-26.448,27.55-52.316,46.665-74.815c42.786,4.571,86.038,9.905,129.083,6.252c16.193-2.037,44.092-8.553,46.359-26.642
				c2.481-19.793-27.358-26.429-42.229-28.414c-9.831-1.271-19.704-2.235-29.622-2.513c-18.043-0.503-36.659-0.896-54.061,4.638
				c-21.074,6.409-38.874,20.642-53.275,36.967c-22.542-2.764-45.565-6.401-67.747-11.986c-12.021-3.176-24.152-6.988-34.483-14.097
				c-2.856-2.188-5.295-4.267-7.168-7.655c-2.092-4.388-1.57-9.52,0.413-13.867c4.825-10.156,15.592-17.095,25.441-22.116
				c15.789-7.762,32.977-12.09,50.277-14.89c34.455-5.875,69.549-9.583,104.471-6.234c36.694,3.761,73.48,11.359,106.781,27.719
				c25.358,12.393,50.029,29.861,63.311,55.428c10.704,20.869,13.533,44.752,17.059,67.76
				c17.493,137.284,28.593,275.31,40.572,413.163c7.345,94.243,14.785,188.681,13.788,283.276
				c-0.583,42.385-3.434,84.865-11.192,126.58c-4.849,25.662-11.809,51.012-23.02,74.671c-8.562,17.77-19.158,35.06-33.657,48.612
				c-14.567,14.232-31.919,25.865-50.965,33.174c-17.926,6.952-37.189,9.643-56.293,10.815
				c-49.068,2.289-98.263,1.825-147.332-0.238c3.475-15.158,7.7-30.165,13.175-44.728c13.896-3.849,27.602-11.706,35.079-24.411
				c9.354-15.46-2.354-29.64-18.299-18.971c-11.298,8.272-18.201,22.866-23.518,35.519
				C983.89,2297.49,980.988,2297.905,978.085,2298.321z M1001.374,1300.666c13.635-14.438,30.714-26.622,50.406-31.053
				c15.963-3.735,32.533-3.038,48.801-2.52c9.761,0.481,19.511,1.318,29.16,2.904c7.821,1.319,15.669,3.155,22.671,7.001
				c4.273,2.397,9.624,6.708,7.201,12.156c-6.016,12.016-26.926,15.753-39.307,17.153
				C1080.632,1309.37,1040.822,1304.715,1001.374,1300.666z M998.296,2293.421c3.523-7.475,7.159-14.322,12.79-20.586
				c3.716-4.561,15.09-11.149,10.533,0.866C1017.031,2283.189,1007.773,2289.441,998.296,2293.421z"/>
			<path d="M992.492,2382.936c-0.001,0.004-0.001,0.008-0.002,0.012C992.491,2382.944,992.491,2382.939,992.492,2382.936z"/>
			<polygon points="985.062,1298.727 985.065,1298.726 985.06,1298.727 			"/>
			<path d="M875.995,2194.366c-0.001-0.003-0.001-0.003-0.001-0.003c0,0.006,0,0.012,0,0.018
				C875.994,2194.375,875.994,2194.371,875.995,2194.366z"/>
			<path d="M1112.025,2147.299c-0.007-0.002-0.013-0.004-0.02-0.006c0.009,0.003,0.018,0.006,0.027,0.008
				C1112.029,2147.3,1112.027,2147.299,1112.025,2147.299z"/>
			<polygon points="1150.031,2100.672 1150.033,2100.677 1150.032,2100.674 			"/>
			<path d="M1109.889,2085.633c0.007-0.001,0.013-0.006,0.02-0.008c-0.01,0.002-0.017,0.007-0.027,0.01
				C1109.882,2085.635,1109.885,2085.634,1109.889,2085.633z"/>
			<path d="M955.394,1961.457c0.02-0.011,0.04-0.023,0.059-0.034c-0.019,0.011-0.039,0.023-0.062,0.035L955.394,1961.457z"/>
			<path d="M1112.367,2210.965c-0.012-0.005-0.025-0.013-0.04-0.017c0.036,0.014,0.069,0.033,0.102,0.048
				C1112.408,2210.986,1112.388,2210.976,1112.367,2210.965z"/>
			<path d="M1017.715,2111.102c-0.016,0.01-0.037,0.019-0.056,0.03C1017.677,2111.123,1017.7,2111.113,1017.715,2111.102z"/>
			<path d="M1002.444,2110.271c0.003-0.006-0.03-0.02-0.039-0.029C1002.418,2110.251,1002.431,2110.259,1002.444,2110.271z"/>
			<path d="M1022.092,2087.717c-0.067-0.074-0.134-0.148-0.2-0.219c0.001,0.004,0.005,0.006,0.006,0.01
				C1021.963,2087.575,1022.026,2087.646,1022.092,2087.717z"/>
			<path d="M1020.717,2086.35c-0.008-0.007-0.015-0.012-0.022-0.019C1020.701,2086.339,1020.706,2086.345,1020.717,2086.35z"/>
			<path d="M819.415,2145.127c0.095,0.031,0.19,0.063,0.284,0.095C819.606,2145.187,819.511,2145.156,819.415,2145.127z"/>
			<path d="M814.743,2142.042c0.009,0.009,0.018,0.018,0.024,0.028C814.76,2142.056,814.753,2142.05,814.743,2142.042z"/>
			<path d="M834.357,2136.58c0.007-0.038,0.014-0.073,0.022-0.107c-0.01,0.042-0.019,0.084-0.026,0.123
				C834.356,2136.591,834.354,2136.584,834.357,2136.58z"/>
			<path d="M1008.277,1969.439c-0.089-0.003-0.179-0.01-0.268-0.017c0.097,0.009,0.198,0.017,0.299,0.022
				C1008.3,1969.442,1008.289,1969.441,1008.277,1969.439z"/>
			<path d="M1002.464,1967.399c0.005,0.006,0.012,0.008,0.021,0.014c-0.009-0.006-0.017-0.011-0.026-0.02
				c-0.004,0.001-0.004,0.001-0.004-0.003c-0.004,0.001-0.004-0.003-0.008-0.002
				C1002.454,1967.392,1002.458,1967.395,1002.464,1967.399z"/>
			<path d="M1167.446,2186.345c0.032-0.091,0.065-0.183,0.096-0.278C1167.507,2186.158,1167.477,2186.253,1167.446,2186.345z"/>
			<path d="M899.639,2218.895c0.017-0.007,0.037-0.015,0.054-0.022c-0.02,0.008-0.041,0.016-0.057,0.023L899.639,2218.895z"/>
			<path d="M900.702,2218.337c0.013-0.01,0.026-0.016,0.038-0.026C900.727,2218.32,900.714,2218.324,900.702,2218.337z"/>
			<path d="M904.645,2214.285c0.048-0.083,0.093-0.17,0.141-0.257C904.737,2214.113,904.69,2214.198,904.645,2214.285z"/>
			<path d="M905.118,2204.488c0-0.002-0.002-0.004-0.003-0.006C905.116,2204.484,905.117,2204.486,905.118,2204.488z"/>
			<path d="M901.457,2199.987C901.457,2199.987,901.457,2199.987,901.457,2199.987c-0.031-0.023-0.06-0.045-0.091-0.065
				C901.396,2199.941,901.426,2199.964,901.457,2199.987z"/>
			<path d="M1046.532,2155.302c-6.679-3.651-15.68-0.099-18.138,7.086c-4.462,12.824,11.01,23.056,21.017,13.883
				C1055.936,2170.519,1054.359,2159.091,1046.532,2155.302z M1048.92,2166.501c0.149,3.317-1.847,6.563-4.882,7.913
				c0,0,0,0,0.004-0.001c-7.155,3.292-14.554-4.525-10.866-11.489C1037.111,2155.412,1048.618,2158.017,1048.92,2166.501z"/>
			<path d="M1028.392,2162.392c0.004-0.001,0.003-0.004,0.003-0.004c0.002-0.006,0.004-0.011,0.006-0.017
				C1028.397,2162.378,1028.395,2162.385,1028.392,2162.392z"/>
			<path d="M1028.472,2162.181c-0.009,0.024-0.017,0.045-0.025,0.071C1028.455,2162.229,1028.463,2162.205,1028.472,2162.181z"/>
			<path d="M1080.097,2321.128c0.013,0.004,0.027,0.01,0.041,0.014C1080.124,2321.136,1080.11,2321.132,1080.097,2321.128z"/>
			<path d="M1071.855,2308.323c-0.001-0.015,0-0.032,0.002-0.048C1071.854,2308.291,1071.854,2308.307,1071.855,2308.323z"/>
			<path d="M958.722,2246.924c-8.243,0.063-14.378,8.646-11.72,16.457c4.054,12.007,20.903,11.406,24.189-0.78
				C973.278,2254.726,966.886,2246.616,958.722,2246.924z M966.924,2258.594c0.742,5.216-4.401,9.904-9.524,8.759
				c-6.19-1.109-8.545-9.3-3.963-13.577C958.041,2249.188,966.279,2252.123,966.924,2258.594z"/>
			<path d="M1235.661,2077.316c0.032,0.009,0.062,0.021,0.097,0.029C1235.727,2077.336,1235.694,2077.325,1235.661,2077.316z"/>
			<path d="M1226.282,2227.7c0.021-0.042,0.042-0.079,0.063-0.12c-0.027,0.05-0.053,0.099-0.083,0.149
				C1226.272,2227.721,1226.276,2227.709,1226.282,2227.7z"/>
			<path d="M901.819,2089.306c0.014,0.012,0.028,0.027,0.042,0.043c-0.037-0.036-0.07-0.07-0.103-0.107
				C901.776,2089.263,901.799,2089.284,901.819,2089.306z"/>
			<path d="M898.965,2080.789c0.005-0.06,0.015-0.121,0.024-0.182c-0.013,0.076-0.023,0.152-0.032,0.231
				C898.961,2080.819,898.961,2080.804,898.965,2080.789z"/>
			<path d="M909.186,2072.093c-0.099-0.001-0.199-0.002-0.302-0.003C908.984,2072.094,909.088,2072.093,909.186,2072.093z"/>
			<path d="M854.641,1934.068c0.01-0.024,0.019-0.048,0.029-0.072c-0.01,0.021-0.017,0.041-0.028,0.061
				C854.643,1934.06,854.64,1934.064,854.641,1934.068z"/>
			<path d="M1145.41,2013.362c-0.002,0-0.004-0.001-0.005-0.001c0.025,0.009,0.05,0.018,0.077,0.026
				C1145.458,2013.378,1145.435,2013.372,1145.41,2013.362z"/>
			<path d="M1271.723,2035.872c0.032-0.095,0.06-0.189,0.088-0.283C1271.781,2035.684,1271.751,2035.778,1271.723,2035.872z"/>
			<path d="M796.167,2046.881c0.031,0.096,0.066,0.192,0.1,0.284C796.235,2047.071,796.203,2046.974,796.167,2046.881z"/>
			<path d="M810.934,2240.923c0.025-0.002,0.048,0.001,0.073-0.001c-0.033,0-0.066-0.001-0.099-0.001
				C810.916,2240.923,810.926,2240.921,810.934,2240.923z"/>
			<path d="M818.824,2236.921c0.005-0.008,0.012-0.013,0.018-0.018C818.833,2236.904,818.829,2236.914,818.824,2236.921z"/>
			<path d="M1234.32,1634.534c0.042,0.005,0.083,0.011,0.125,0.015C1234.407,1634.543,1234.362,1634.537,1234.32,1634.534z"/>
			<path d="M1082.586,1816.602c-7.044,4.435-6.516,15.182,0.891,18.957c6.144,3.389,14.507-0.576,15.757-7.483
				C1101.256,1818.641,1090.689,1811.347,1082.586,1816.602z M1088.367,1819.455c8.463,0.105,8.652,12.347,0.203,12.728
				C1080.213,1831.989,1080.038,1819.93,1088.367,1819.455z"/>
			<path d="M1135.403,2019.342c-2.378-10.193-15.793-13.121-22.225-4.874c-6.124,7.621-1.192,19.469,8.568,20.391
				C1130.241,2035.944,1137.538,2027.628,1135.403,2019.342z M1131.134,2021.737c0.542,5.995-6.168,10.542-11.529,7.79
				c-5.925-2.748-6.005-11.528-0.144-14.401C1124.363,2012.452,1130.907,2016.157,1131.134,2021.737z"/>
			<path d="M1152.203,1882.938c-6.122-2.953-14.059,0.934-15.45,7.599c-2.339,9.883,8.876,17.506,17.201,11.716
				C1161.01,1897.432,1160.023,1886.43,1152.203,1882.938z M1154.127,1892.747c0.169,8.654-12.3,9.322-13.065,0.711
				C1140.881,1884.799,1153.397,1884.107,1154.127,1892.747z"/>
			<path d="M1109.353,2267.304c-7.307-8.999-22.024-5.475-24.447,5.871c-2.384,10.187,7.661,19.457,17.625,16.34l0,0
				C1111.959,2286.82,1115.664,2274.836,1109.353,2267.304z M1107.898,2275.913c0.325,6.98-7.691,11.923-13.776,8.472
				c-6.79-3.504-6.418-13.817,0.622-16.802C1100.643,2264.812,1107.882,2269.394,1107.898,2275.913z"/>
			<path d="M1136.131,1679.556c-5-0.907-9.571,4.379-7.906,9.199c1.687,5.624,9.411,6.888,12.724,2.005
				C1144.008,1686.541,1141.298,1680.243,1136.131,1679.556z M1137.641,1686.487c0.142,3.346-4.798,3.697-5.123,0.363
				C1132.328,1683.463,1137.355,1683.101,1137.641,1686.487z"/>
			<path d="M1016.508,1912.446c1.203,5.036,7.569,7.589,11.919,4.823c6.318-3.753,4.537-13.545-2.703-14.828
				C1020.077,1901.29,1014.889,1906.913,1016.508,1912.446z M1020.844,1910.581c-0.13-4.807,6.961-4.857,6.884-0.045
				C1027.451,1914.811,1021.175,1914.849,1020.844,1910.581z"/>
			<path d="M961.214,2090.456c-5.627-1.19-11.311,3.829-10.77,9.564c0.449,7.965,10.633,11.466,15.89,5.465
				C971.035,2100.384,968.105,2091.637,961.214,2090.456z M964.049,2099.304c-0.019,5.944-8.706,6.17-9.019,0.231
				C955.027,2093.583,963.744,2093.36,964.049,2099.304z"/>
			<path d="M1173.33,2132.99c-2.572-6.135-11.27-7.5-15.666-2.556c-4.448,4.732-2.676,12.893,3.413,15.241
				C1168.87,2148.944,1176.841,2140.7,1173.33,2132.99z M1169.532,2136.347c0.519,6.419-8.829,7.478-9.749,1.101
				C1159.212,2130.979,1168.644,2129.933,1169.532,2136.347z"/>
			<path d="M1043.118,1637.121c-0.067,0.013-0.129,0.04-0.195,0.056C1042.989,1637.158,1043.053,1637.139,1043.118,1637.121z"/>
			<path d="M1038.493,1636.982c7.043,2.339,13.463-5.423,9.804-11.891c-3.417-6.265-12.86-5.369-15.098,1.397
				C1031.688,1630.697,1034.232,1635.672,1038.493,1636.982z M1037.377,1629.172c-0.001-4.782,7.086-4.988,7.35-0.206
				C1044.765,1633.865,1037.618,1634.066,1037.377,1629.172z"/>
			<path d="M983.39,1760.568c8.779-5.567,5.166-19.362-5.245-19.822c-6.063-0.394-11.497,4.948-11.256,11.012
				C967.016,1759.985,976.485,1765.036,983.39,1760.568z M977.433,1757.628c-8.125-0.53-7.695-12.3,0.421-12.291
				C985.937,1745.839,985.523,1757.671,977.433,1757.628z"/>
			<path d="M921.828,1957.87c8.335,0.939,14.354-8.339,10.112-15.57c-3.488-6.354-12.823-7.005-17.224-1.277
				C909.624,1947.344,913.74,1957.113,921.828,1957.87z M920.006,1952.553c-6.576-4.007-0.967-13.765,5.807-10.112
				C932.35,1946.447,926.754,1956.173,920.006,1952.553z"/>
			<path d="M870.421,2139.196c-7.612-3.721-16.773,2.07-16.658,10.546c-0.007,9.492,11.111,14.99,18.667,9.189
				C879.288,2153.927,878.143,2142.719,870.421,2139.196z M872.362,2148.854c0.795,9.277-12.597,10.836-13.955,1.625
				C857.65,2141.244,870.996,2139.688,872.362,2148.854z"/>
			<path d="M1080.741,2037.078c-7.671-3.911-16.156,4.073-12.809,11.984c2.242,5.756,10.262,7.588,14.779,3.39
				C1087.649,2048.301,1086.565,2039.856,1080.741,2037.078z M1081.24,2044.805c0.671,6.187-8.352,7.432-9.391,1.306
				C1071.14,2039.852,1080.229,2038.59,1081.24,2044.805z"/>
		</g>
		<path d="M1195.279,1064.844c-1.507,0.019-3.001,0.115-4.502,0.289c-1.599,0.225-3.176,0.534-4.743,0.938
			c-1.462,0.405-2.892,0.9-4.294,1.465c-1.391,0.599-2.748,1.268-4.071,2.006c-1.27,0.749-2.497,1.559-3.687,2.431
			c-1.177,0.905-2.294,1.861-3.369,2.878c-1.113,1.094-2.152,2.244-3.099,3.427c-0.93,1.195-1.785,2.436-2.579,3.729
			c-0.759,1.307-1.441,2.645-2.064,4.016c-0.637,1.497-1.183,3.019-1.648,4.58c-0.437,1.603-0.777,3.222-1.017,4.862
			c-0.216,1.69-0.32,3.378-0.325,4.778c0.017,1.532,0.11,3.052,0.286,4.542c0.226,1.628,0.54,3.234,0.956,4.824
			c0.373,1.322,0.81,2.621,1.313,3.896c0.613,1.482,1.305,2.917,2.084,4.315c0.792,1.36,1.657,2.671,2.423,3.693
			c0.946,1.246,1.962,2.429,3.044,3.556c1.025,1.032,2.098,2.003,3.229,2.917c0.054,0.041,0.109,0.081,0.163,0.129
			c1.165,0.899,2.376,1.729,3.635,2.495c1.469,0.851,2.974,1.608,4.529,2.286c1.324,0.54,2.661,1.013,4.028,1.423
			c1.54,0.42,3.09,0.755,4.662,1.001c1.643,0.212,3.279,0.334,4.937,0.359c1.502-0.012,2.989-0.101,4.479-0.266
			c1.646-0.224,3.263-0.541,4.874-0.952c1.488-0.421,2.94-0.917,4.376-1.494c1.242-0.538,2.458-1.119,3.651-1.762
			c1.507-0.871,2.951-1.815,4.108-2.682c1.193-0.918,2.326-1.895,3.413-2.933c1.028-1.025,1.999-2.098,2.888-3.184
			c0.06-0.075,0.117-0.149,0.145-0.183c0.021-0.027,0.044-0.054,0.064-0.081c0.04-0.051,0.081-0.102,0.085-0.109
			c0.849-1.086,1.638-2.228,2.305-3.329c0.021-0.038,0.046-0.079,0.07-0.117l0.046-0.079c0.05-0.083,0.096-0.162,0.109-0.186
			c0.792-1.365,1.505-2.769,2.138-4.216c0.596-1.435,1.1-2.896,1.528-4.388c0.4-1.559,0.721-3.121,0.958-4.712
			c0.189-1.537,0.295-3.069,0.319-4.616c-0.012-1.593-0.115-3.175-0.301-4.756c-0.222-1.537-0.522-3.056-0.909-4.556
			c-0.417-1.492-0.909-2.95-1.483-4.386c-0.564-1.33-1.195-2.623-1.894-3.885c-0.754-1.299-1.577-2.549-2.461-3.761
			c-0.908-1.181-1.867-2.313-2.898-3.396c-1.131-1.138-2.312-2.208-3.562-3.219c-1.163-0.888-2.359-1.717-3.603-2.489
			c-1.385-0.819-2.813-1.552-4.286-2.205c-1.442-0.597-2.902-1.115-4.396-1.561c-1.622-0.427-3.244-0.771-4.898-1.017
			c-0.578-0.07-1.156-0.129-1.734-0.176C1197.293,1064.903,1196.288,1064.857,1195.279,1064.844z M1186.186,1139.259
			c-2.887-0.677-5.687-1.672-8.358-2.96c-1.65-0.797-3.243-1.72-4.767-2.731c-0.784-0.522-1.548-1.074-2.288-1.654
			c-0.082-0.061-0.16-0.121-0.234-0.185c-0.397-0.313-0.79-0.634-1.178-0.961c-0.118-0.1-0.237-0.196-0.355-0.296
			c-0.068-0.052-0.128-0.111-0.185-0.17c-0.29-0.258-0.579-0.516-0.861-0.784c-1.527-1.43-2.943-2.977-4.224-4.629
			c-2.949-3.79-5.186-8.085-6.636-12.656c-2.9-9.127-2.328-19.378,1.587-28.117c1.951-4.357,4.585-8.328,7.913-11.762
			c3.194-3.297,6.975-5.969,11.072-8.023c4.183-2.098,8.744-3.332,13.381-3.859c4.703-0.537,9.485-0.136,14.071,1
			c9.165,2.264,17.328,7.94,22.809,15.602c2.646,3.7,4.599,7.853,5.863,12.218c1.34,4.634,1.759,9.49,1.396,14.293
			c-0.458,6.026-2.403,11.918-5.443,17.065c-0.021,0.034-0.042,0.069-0.062,0.1l-0.046,0.079c-0.892,1.476-1.869,2.892-2.938,4.249
			c-2.993,3.764-6.626,7.004-10.759,9.471c-4.194,2.501-8.756,4.197-13.55,5.102c-1.415,0.268-2.859,0.455-4.307,0.558
			c-0.088,0.015-0.175,0.025-0.262,0.029c-1.919,0.119-3.848,0.1-5.763-0.054
			C1190.084,1140.022,1188.116,1139.715,1186.186,1139.259z"/>
		<path d="M1634.573,771.478c-0.884-0.003-1.764,0.038-2.645,0.129c-0.876,0.117-1.74,0.278-2.599,0.49
			c-0.786,0.218-1.557,0.466-2.317,0.758c-0.829,0.348-1.636,0.734-2.423,1.172c-0.671,0.397-1.319,0.821-1.951,1.275
			c-0.666,0.516-1.305,1.057-1.919,1.635c-0.55,0.551-1.065,1.119-1.568,1.714c-0.512,0.662-0.996,1.342-1.446,2.045
			c-0.431,0.734-0.823,1.478-1.185,2.25c-0.33,0.778-0.625,1.57-0.878,2.38c-0.228,0.815-0.414,1.641-0.561,2.474
			c-0.131,0.906-0.223,1.815-0.238,2.72c-0.002,0.025,0,0.051-0.002,0.072c0.004,0.849,0.048,1.686,0.135,2.523
			c0.113,0.839,0.266,1.667,0.463,2.492c0.222,0.83,0.488,1.642,0.799,2.443c0.327,0.781,0.691,1.546,1.1,2.287
			c0.417,0.73,0.884,1.432,1.382,2.108c0.5,0.65,1.03,1.274,1.592,1.872c0.611,0.612,1.25,1.187,1.921,1.729
			c0.608,0.468,1.234,0.901,1.883,1.307c0.754,0.447,1.534,0.853,2.331,1.213c0.754,0.321,1.525,0.6,2.314,0.844
			c0.84,0.234,1.691,0.422,2.553,0.564c0.849,0.119,1.699,0.188,2.556,0.21c0.87,0.002,1.739-0.04,2.606-0.132
			c0.847-0.112,1.682-0.268,2.51-0.468c0.801-0.217,1.586-0.471,2.357-0.766c0.784-0.326,1.546-0.691,2.29-1.096
			c0.038-0.022,0.075-0.041,0.113-0.063c0.731-0.428,1.44-0.894,2.123-1.395c0.623-0.477,1.216-0.984,1.783-1.523
			c0.569-0.56,1.104-1.149,1.608-1.765c0.515-0.655,0.992-1.338,1.436-2.042c0.438-0.737,0.835-1.488,1.194-2.268
			c0.339-0.795,0.635-1.609,0.886-2.437c0.233-0.829,0.416-1.666,0.56-2.514c0.113-0.817,0.183-1.638,0.21-2.459
			c0.008-0.902-0.035-1.8-0.128-2.699c-0.113-0.839-0.27-1.664-0.467-2.485c-0.236-0.871-0.514-1.72-0.843-2.562
			c-0.331-0.777-0.699-1.536-1.108-2.277c-0.41-0.694-0.853-1.365-1.327-2.02c-0.509-0.662-1.054-1.298-1.629-1.904
			c-0.528-0.526-1.079-1.029-1.657-1.509c-0.709-0.559-1.444-1.073-2.213-1.554c-0.727-0.427-1.472-0.808-2.238-1.155
			c-0.75-0.317-1.511-0.591-2.29-0.831c-0.819-0.229-1.641-0.411-2.478-0.554c-0.492-0.069-0.983-0.123-1.475-0.163
			C1635.321,771.513,1634.948,771.491,1634.573,771.478z M1622.364,811.657c-4.118-2.329-7.415-5.872-9.573-10.071
			c-1.772-3.442-2.607-7.357-2.54-11.217c0.066-2.333,0.439-4.62,1.136-6.859c0.687-2.2,1.746-4.273,3.026-6.187
			c2.599-3.89,6.445-6.914,10.761-8.684c4.353-1.785,9.145-2.177,13.755-1.296c4.35,0.835,8.397,3.003,11.638,5.997
			c3.288,3.037,5.617,7.041,6.777,11.35c0.819,3.033,1.004,6.199,0.588,9.294c0.001,0.08-0.005,0.158-0.015,0.237
			c0,0.004-0.001,0.007-0.001,0.011c-0.015,0.096-0.03,0.196-0.049,0.292c0.004,0,0.004,0,0.004,0
			c-0.009,0.064-0.021,0.128-0.03,0.189c-0.008,0.053-0.02,0.107-0.031,0.156c-0.097,0.53-0.208,1.055-0.336,1.575
			c-0.152,0.634-0.329,1.258-0.531,1.877c-0.782,2.402-1.962,4.671-3.458,6.704c-0.454,0.62-0.936,1.22-1.452,1.799
			c-1.481,1.663-3.188,3.092-5.054,4.258c-0.347,0.228-0.713,0.473-1.099,0.651c-0.098,0.053-0.193,0.107-0.291,0.157
			c-0.136,0.076-0.268,0.148-0.4,0.217c-0.528,0.282-1.072,0.531-1.621,0.764c-2.623,1.102-5.442,1.773-8.288,1.896
			c-0.091,0.003-0.181,0.003-0.267-0.004c-0.735,0.027-1.474,0.022-2.211-0.02c-0.194-0.012-0.388-0.024-0.585-0.04
			C1628.763,814.427,1625.381,813.366,1622.364,811.657z"/>
		<path d="M1128.253,713.969c-0.884-0.003-1.764,0.038-2.645,0.129c-0.876,0.117-1.74,0.278-2.599,0.49
			c-0.786,0.218-1.557,0.466-2.317,0.758c-0.829,0.348-1.636,0.734-2.423,1.172c-0.671,0.397-1.319,0.821-1.951,1.275
			c-0.666,0.516-1.305,1.057-1.919,1.635c-0.55,0.551-1.065,1.119-1.568,1.714c-0.512,0.662-0.996,1.342-1.446,2.045
			c-0.431,0.734-0.823,1.478-1.185,2.25c-0.33,0.778-0.625,1.57-0.878,2.38c-0.228,0.815-0.414,1.641-0.561,2.474
			c-0.131,0.906-0.223,1.815-0.238,2.72c-0.002,0.025-0.001,0.05-0.002,0.072c0.004,0.849,0.048,1.686,0.135,2.523
			c0.113,0.839,0.266,1.667,0.463,2.492c0.222,0.83,0.488,1.642,0.799,2.443c0.327,0.781,0.691,1.546,1.1,2.287
			c0.417,0.73,0.884,1.432,1.382,2.108c0.5,0.65,1.03,1.274,1.592,1.872c0.611,0.612,1.25,1.187,1.921,1.729
			c0.608,0.468,1.234,0.901,1.883,1.307c0.754,0.447,1.534,0.853,2.331,1.213c0.754,0.321,1.525,0.6,2.314,0.844
			c0.84,0.234,1.691,0.422,2.553,0.564c0.849,0.119,1.699,0.188,2.556,0.21c0.87,0.002,1.739-0.04,2.606-0.132
			c0.846-0.112,1.682-0.268,2.51-0.468c0.801-0.217,1.586-0.471,2.357-0.766c0.784-0.326,1.546-0.691,2.29-1.096
			c0.038-0.022,0.075-0.041,0.113-0.063c0.731-0.428,1.44-0.894,2.123-1.395c0.623-0.477,1.216-0.984,1.783-1.523
			c0.569-0.56,1.104-1.149,1.608-1.765c0.515-0.655,0.992-1.338,1.435-2.042c0.438-0.737,0.835-1.488,1.194-2.268
			c0.339-0.796,0.635-1.609,0.886-2.437c0.233-0.829,0.416-1.666,0.56-2.514c0.113-0.817,0.183-1.638,0.21-2.459
			c0.008-0.902-0.035-1.8-0.128-2.699c-0.113-0.839-0.27-1.664-0.467-2.485c-0.236-0.871-0.514-1.72-0.843-2.562
			c-0.331-0.777-0.699-1.536-1.108-2.277c-0.41-0.694-0.853-1.365-1.327-2.02c-0.51-0.662-1.054-1.298-1.629-1.904
			c-0.528-0.526-1.079-1.029-1.657-1.509c-0.709-0.559-1.444-1.073-2.213-1.554c-0.727-0.427-1.472-0.808-2.238-1.155
			c-0.75-0.317-1.511-0.591-2.29-0.831c-0.819-0.229-1.641-0.411-2.478-0.554c-0.492-0.069-0.983-0.123-1.475-0.163
			C1129,714.004,1128.628,713.982,1128.253,713.969z M1116.044,754.148c-4.118-2.329-7.415-5.872-9.573-10.071
			c-1.772-3.442-2.607-7.357-2.54-11.217c0.066-2.333,0.439-4.62,1.136-6.859c0.687-2.2,1.746-4.273,3.026-6.187
			c2.599-3.89,6.445-6.914,10.761-8.684c4.352-1.785,9.145-2.177,13.755-1.295c4.35,0.835,8.398,3.003,11.639,5.997
			c3.288,3.038,5.617,7.041,6.777,11.35c0.819,3.033,1.004,6.199,0.588,9.294c0.001,0.08-0.006,0.158-0.016,0.237
			c0,0.003-0.001,0.007-0.001,0.011c-0.015,0.096-0.03,0.196-0.049,0.292c0.003,0,0.003,0,0.003,0
			c-0.009,0.064-0.021,0.128-0.03,0.189c-0.008,0.054-0.02,0.107-0.031,0.156c-0.097,0.53-0.208,1.055-0.337,1.575
			c-0.152,0.634-0.329,1.258-0.531,1.877c-0.782,2.402-1.962,4.671-3.458,6.704c-0.454,0.62-0.936,1.22-1.452,1.799
			c-1.481,1.663-3.188,3.092-5.054,4.258c-0.347,0.228-0.713,0.473-1.099,0.651c-0.098,0.053-0.193,0.107-0.29,0.157
			c-0.136,0.076-0.268,0.148-0.4,0.217c-0.528,0.282-1.072,0.531-1.621,0.764c-2.623,1.102-5.442,1.773-8.288,1.896
			c-0.091,0.004-0.181,0.003-0.267-0.004c-0.735,0.027-1.474,0.022-2.211-0.02c-0.194-0.012-0.388-0.024-0.585-0.04
			C1122.443,756.918,1119.06,755.858,1116.044,754.148z"/>
		<path d="M1438.747,989.347c-0.884-0.003-1.764,0.038-2.645,0.129c-0.876,0.117-1.74,0.278-2.599,0.49
			c-0.786,0.218-1.557,0.466-2.317,0.758c-0.829,0.348-1.636,0.734-2.422,1.172c-0.671,0.397-1.319,0.821-1.951,1.275
			c-0.666,0.516-1.305,1.057-1.919,1.635c-0.55,0.551-1.065,1.119-1.568,1.714c-0.512,0.662-0.996,1.342-1.446,2.045
			c-0.431,0.734-0.823,1.478-1.185,2.25c-0.33,0.778-0.625,1.57-0.878,2.38c-0.228,0.815-0.414,1.641-0.561,2.474
			c-0.131,0.906-0.223,1.815-0.238,2.72c-0.002,0.025,0,0.05-0.002,0.072c0.004,0.849,0.048,1.686,0.135,2.523
			c0.113,0.839,0.266,1.667,0.463,2.492c0.222,0.83,0.488,1.642,0.799,2.443c0.327,0.781,0.691,1.546,1.1,2.287
			c0.417,0.73,0.884,1.432,1.382,2.108c0.5,0.65,1.03,1.274,1.592,1.872c0.611,0.612,1.25,1.187,1.921,1.729
			c0.608,0.468,1.234,0.901,1.883,1.307c0.755,0.447,1.534,0.853,2.331,1.214c0.754,0.321,1.525,0.6,2.314,0.844
			c0.84,0.234,1.691,0.422,2.553,0.564c0.849,0.119,1.699,0.188,2.556,0.21c0.87,0.002,1.739-0.04,2.606-0.132
			c0.846-0.112,1.682-0.268,2.51-0.468c0.801-0.217,1.586-0.471,2.357-0.766c0.784-0.326,1.546-0.691,2.29-1.096
			c0.038-0.022,0.075-0.041,0.113-0.063c0.731-0.428,1.44-0.894,2.123-1.395c0.623-0.477,1.216-0.984,1.783-1.523
			c0.569-0.56,1.104-1.149,1.608-1.765c0.515-0.655,0.992-1.338,1.435-2.042c0.438-0.737,0.835-1.488,1.194-2.268
			c0.339-0.796,0.635-1.609,0.886-2.437c0.233-0.829,0.416-1.666,0.56-2.514c0.113-0.817,0.183-1.638,0.21-2.459
			c0.008-0.902-0.035-1.8-0.128-2.699c-0.113-0.839-0.27-1.664-0.467-2.485c-0.236-0.871-0.514-1.72-0.843-2.562
			c-0.331-0.777-0.699-1.536-1.108-2.277c-0.41-0.694-0.853-1.365-1.327-2.02c-0.51-0.662-1.054-1.298-1.629-1.904
			c-0.528-0.526-1.079-1.029-1.657-1.509c-0.709-0.559-1.444-1.073-2.213-1.554c-0.727-0.427-1.472-0.808-2.238-1.155
			c-0.75-0.317-1.511-0.591-2.29-0.831c-0.819-0.229-1.641-0.411-2.478-0.554c-0.492-0.069-0.983-0.123-1.475-0.163
			C1439.495,989.382,1439.122,989.36,1438.747,989.347z M1426.538,1029.526c-4.118-2.329-7.415-5.872-9.573-10.071
			c-1.772-3.442-2.607-7.357-2.54-11.217c0.066-2.333,0.439-4.62,1.136-6.859c0.687-2.2,1.746-4.273,3.026-6.187
			c2.599-3.89,6.445-6.914,10.761-8.684c4.352-1.785,9.145-2.177,13.755-1.295c4.35,0.835,8.398,3.003,11.639,5.997
			c3.288,3.038,5.617,7.041,6.777,11.35c0.82,3.033,1.004,6.199,0.588,9.294c0.001,0.08-0.006,0.158-0.016,0.237
			c0,0.003-0.001,0.007-0.001,0.011c-0.015,0.096-0.03,0.196-0.049,0.292c0.003,0,0.003,0,0.003,0
			c-0.009,0.064-0.021,0.128-0.03,0.189c-0.008,0.054-0.02,0.107-0.031,0.156c-0.097,0.53-0.208,1.055-0.337,1.575
			c-0.152,0.634-0.329,1.258-0.531,1.877c-0.782,2.402-1.962,4.671-3.458,6.704c-0.454,0.62-0.936,1.22-1.452,1.799
			c-1.481,1.663-3.188,3.092-5.054,4.258c-0.347,0.228-0.713,0.473-1.099,0.651c-0.098,0.053-0.193,0.107-0.29,0.157
			c-0.136,0.076-0.268,0.148-0.4,0.217c-0.528,0.282-1.072,0.531-1.621,0.764c-2.623,1.102-5.442,1.773-8.288,1.896
			c-0.091,0.003-0.181,0.003-0.267-0.004c-0.735,0.027-1.474,0.022-2.211-0.02c-0.194-0.012-0.388-0.024-0.585-0.04
			C1432.937,1032.296,1429.555,1031.236,1426.538,1029.526z"/>
		<path d="M1379.319,1217.389c-0.884-0.003-1.764,0.038-2.645,0.129c-0.876,0.117-1.74,0.278-2.599,0.49
			c-0.786,0.218-1.557,0.466-2.317,0.758c-0.829,0.348-1.636,0.734-2.423,1.172c-0.671,0.397-1.319,0.821-1.951,1.275
			c-0.666,0.516-1.305,1.057-1.919,1.635c-0.55,0.551-1.065,1.119-1.568,1.714c-0.512,0.662-0.996,1.342-1.446,2.045
			c-0.431,0.734-0.823,1.478-1.185,2.25c-0.33,0.778-0.625,1.57-0.878,2.38c-0.228,0.815-0.414,1.641-0.561,2.474
			c-0.131,0.906-0.223,1.816-0.238,2.72c-0.002,0.025,0,0.051-0.002,0.072c0.004,0.849,0.048,1.686,0.135,2.523
			c0.113,0.839,0.266,1.667,0.463,2.492c0.222,0.83,0.488,1.642,0.799,2.443c0.327,0.781,0.691,1.546,1.1,2.287
			c0.417,0.73,0.884,1.432,1.382,2.108c0.5,0.65,1.03,1.274,1.592,1.872c0.611,0.612,1.25,1.187,1.921,1.729
			c0.608,0.468,1.234,0.901,1.883,1.307c0.754,0.447,1.534,0.853,2.331,1.213c0.754,0.321,1.525,0.6,2.314,0.844
			c0.84,0.234,1.691,0.422,2.553,0.564c0.849,0.119,1.699,0.188,2.556,0.21c0.87,0.002,1.739-0.04,2.606-0.132
			c0.847-0.112,1.682-0.268,2.51-0.468c0.801-0.217,1.586-0.471,2.357-0.766c0.784-0.326,1.546-0.691,2.29-1.096
			c0.038-0.022,0.075-0.041,0.113-0.063c0.731-0.428,1.44-0.894,2.123-1.395c0.623-0.477,1.216-0.985,1.783-1.523
			c0.569-0.56,1.104-1.149,1.608-1.765c0.515-0.655,0.992-1.338,1.436-2.042c0.438-0.737,0.835-1.488,1.194-2.268
			c0.339-0.796,0.635-1.609,0.886-2.437c0.233-0.829,0.416-1.666,0.56-2.514c0.113-0.817,0.183-1.638,0.21-2.459
			c0.008-0.902-0.035-1.8-0.128-2.699c-0.113-0.839-0.27-1.664-0.467-2.485c-0.236-0.871-0.514-1.72-0.843-2.562
			c-0.331-0.777-0.699-1.536-1.108-2.277c-0.41-0.694-0.853-1.365-1.327-2.02c-0.51-0.662-1.054-1.298-1.629-1.904
			c-0.528-0.526-1.079-1.029-1.657-1.509c-0.709-0.559-1.444-1.073-2.213-1.554c-0.727-0.427-1.472-0.808-2.238-1.155
			c-0.75-0.317-1.511-0.591-2.29-0.831c-0.819-0.229-1.641-0.411-2.478-0.554c-0.492-0.069-0.983-0.123-1.475-0.163
			C1380.066,1217.424,1379.694,1217.402,1379.319,1217.389z M1367.11,1257.569c-4.118-2.329-7.415-5.872-9.573-10.071
			c-1.772-3.442-2.607-7.357-2.54-11.217c0.066-2.333,0.439-4.62,1.136-6.859c0.687-2.2,1.746-4.273,3.026-6.187
			c2.599-3.89,6.445-6.914,10.761-8.684c4.353-1.785,9.145-2.177,13.755-1.295c4.35,0.835,8.397,3.003,11.638,5.997
			c3.288,3.037,5.617,7.041,6.777,11.35c0.819,3.033,1.004,6.199,0.588,9.294c0.001,0.08-0.006,0.158-0.016,0.237
			c0,0.003-0.001,0.007-0.001,0.011c-0.015,0.096-0.03,0.196-0.049,0.292c0.004,0,0.004,0,0.004,0
			c-0.009,0.064-0.021,0.128-0.03,0.189c-0.008,0.054-0.02,0.107-0.031,0.156c-0.097,0.53-0.208,1.055-0.337,1.575
			c-0.152,0.634-0.329,1.258-0.531,1.877c-0.782,2.402-1.962,4.671-3.458,6.704c-0.454,0.62-0.936,1.22-1.452,1.799
			c-1.481,1.663-3.188,3.092-5.054,4.258c-0.347,0.228-0.713,0.473-1.099,0.651c-0.098,0.053-0.193,0.107-0.291,0.157
			c-0.136,0.076-0.268,0.148-0.4,0.217c-0.528,0.282-1.072,0.531-1.621,0.764c-2.623,1.102-5.442,1.773-8.288,1.896
			c-0.091,0.004-0.181,0.003-0.267-0.004c-0.735,0.027-1.474,0.022-2.211-0.02c-0.194-0.012-0.388-0.024-0.585-0.04
			C1373.509,1260.338,1370.126,1259.278,1367.11,1257.569z"/>
		<path d="M870.714,941.483c-1.187,0.084-2.358,0.235-3.53,0.451c-1.16,0.242-2.299,0.536-3.429,0.896
			c-1.062,0.369-2.096,0.787-3.112,1.257c-1.09,0.54-2.142,1.133-3.165,1.787c-0.977,0.657-1.907,1.358-2.809,2.112
			c-0.89,0.783-1.736,1.603-2.542,2.469c-0.771,0.876-1.494,1.785-2.17,2.737c-0.636,0.948-1.22,1.919-1.759,2.922
			c-0.529,1.051-0.995,2.125-1.412,3.224c-0.445,1.267-0.809,2.551-1.099,3.86c-0.236,1.219-0.407,2.443-0.507,3.683
			c-0.065,1.157-0.072,2.315-0.017,3.474c0.082,1.126,0.22,2.238,0.415,3.351c0.238,1.21,0.543,2.393,0.917,3.571
			c0.396,1.165,0.857,2.3,1.388,3.411c0.485,0.963,1.016,1.897,1.591,2.814c0.65,0.984,1.349,1.928,2.102,2.837
			c0.752,0.873,1.544,1.702,2.386,2.488c0.902,0.813,1.848,1.564,2.838,2.268c0.995,0.68,2.025,1.294,3.094,1.86
			c1.103,0.555,2.229,1.039,3.389,1.469c1.162,0.397,2.331,0.726,3.529,0.989c1.193,0.237,2.389,0.406,3.597,0.504
			c1.189,0.067,2.368,0.08,3.557,0.024c1.22-0.085,2.426-0.233,3.628-0.454c1.09-0.229,2.163-0.504,3.229-0.836
			c1.121-0.382,2.211-0.824,3.29-1.318c0.808-0.397,1.597-0.824,2.37-1.285c0.258-0.152,0.514-0.334,0.779-0.485
			c0.061-0.042,0.122-0.084,0.187-0.122c0.905-0.616,1.774-1.271,2.621-1.968c0.897-0.783,1.75-1.602,2.425-2.323
			c0.837-0.932,1.619-1.905,2.344-2.925c0.615-0.914,1.192-1.849,1.708-2.821c0.051-0.097,0.102-0.194,0.154-0.294
			c0.526-1.062,0.993-2.146,1.404-3.258c0.403-1.184,0.737-2.376,1.005-3.589c0.227-1.155,0.392-2.311,0.494-3.479
			c0.076-1.207,0.086-2.408,0.029-3.614c-0.093-1.267-0.255-2.514-0.483-3.76c-0.221-1.054-0.499-2.091-0.816-3.119
			c-0.387-1.147-0.835-2.265-1.341-3.364c-0.506-1.019-1.051-2.005-1.536-2.795c-0.038-0.061-0.08-0.122-0.119-0.179l0-0.004
			c-0.685-1.034-1.421-2.021-2.217-2.972c-0.767-0.874-1.577-1.701-2.429-2.495c-0.869-0.774-1.774-1.497-2.719-2.172
			c-0.986-0.664-1.997-1.276-3.046-1.831c-1.151-0.577-2.327-1.076-3.537-1.517c-1.125-0.376-2.261-0.692-3.421-0.948
			c-1.119-0.221-2.243-0.384-3.375-0.489C873.299,941.435,872.011,941.422,870.714,941.483z M869.917,1000.508
			c-3.984-0.322-7.884-1.359-11.478-3.115c-1.681-0.818-3.28-1.788-4.783-2.888c-2.929-2.121-5.5-4.74-7.54-7.716
			c-0.017-0.02-0.029-0.039-0.042-0.058c-0.049-0.069-0.094-0.138-0.139-0.206c-0.071-0.103-0.131-0.209-0.184-0.318
			c-1.618-2.491-2.885-5.207-3.803-8.045c-2.817-8.731-1.393-18.534,3.382-26.301c2.44-3.971,5.849-7.395,9.763-9.919
			c3.854-2.489,8.161-4.076,12.69-4.778c8.87-1.372,18.417,1.344,25.212,7.21c3.475,3.002,6.331,6.651,8.267,10.82
			c1.995,4.297,3.031,8.983,3.02,13.721c-0.01,4.901-1.22,9.783-3.421,14.153c-0.029,0.091-0.065,0.179-0.108,0.262
			c-0.085,0.163-0.171,0.329-0.256,0.492c-0.038,0.073-0.08,0.138-0.125,0.203c-0.094,0.176-0.184,0.357-0.285,0.529
			c-0.303,0.535-0.627,1.061-0.964,1.575c-0.979,1.487-2.07,2.883-3.234,4.153c-4.939,5.336-11.59,8.898-18.795,9.983
			c-2.298,0.345-4.621,0.417-6.915,0.264C870.089,1000.521,870.003,1000.515,869.917,1000.508z"/>
		<path d="M1361.837,777.576c0.676,2.444,1.486,4.83,2.437,7.184c0.881,2.049,1.861,4.037,2.837,5.802
			c0.035,0.061,0.073,0.121,0.108,0.186c1.203,2.046,2.502,4.013,3.921,5.918c1.439,1.849,2.967,3.614,4.599,5.298
			c1.671,1.658,3.421,3.218,5.259,4.684c1.798,1.372,3.655,2.645,5.588,3.823c2.112,1.235,4.286,2.346,6.527,3.325
			c2.053,0.859,4.14,1.605,6.262,2.228c0.625,0.173,1.258,0.34,1.887,0.495c1.692,0.407,3.394,0.74,5.116,1.009
			c2.395,0.327,4.795,0.514,7.215,0.572c2.648,0.008,5.274-0.151,7.906-0.465c2.282-0.325,4.53-0.767,6.766-1.33
			c2.343-0.637,4.629-1.409,6.882-2.317c2.134-0.907,4.201-1.92,6.227-3.052c2.069-1.219,4.056-2.538,5.984-3.974
			c1.779-1.386,3.461-2.857,5.088-4.411c1.594-1.593,3.082-3.255,4.5-4.999c1.495-1.926,2.865-3.919,4.137-5.996
			c1.169-2.003,2.223-4.057,3.099-6.011c0.984-2.31,1.827-4.656,2.53-7.061c0.63-2.346,1.116-4.703,1.483-7.098
			c0.288-2.225,0.49-4.457,0.527-6.703c0.015-2.554-0.112-5.084-0.398-7.619c-0.335-2.424-0.792-4.806-1.386-7.182
			c-0.603-2.193-1.293-4.371-2.146-6.453c-0.106-0.258-0.211-0.515-0.295-0.724c-0.024-0.056-0.045-0.108-0.069-0.164
			c-0.015-0.037-0.03-0.075-0.03-0.075c-0.909-2.149-1.997-4.222-3.063-6.091c-1.219-2.112-2.62-4.11-3.911-5.82
			c-1.378-1.75-2.842-3.417-4.384-5.021c-1.75-1.744-3.589-3.376-5.53-4.904c-1.721-1.298-3.493-2.509-5.333-3.625
			c-2.085-1.219-4.22-2.304-6.43-3.277c-2.067-0.864-4.168-1.615-6.318-2.25c-2.316-0.642-4.657-1.149-7.034-1.518
			c-2.559-0.351-5.128-0.537-7.717-0.577c-2.336,0.017-4.654,0.158-6.974,0.418c-2.375,0.32-4.721,0.755-6.993,1.322
			c-2.491,0.676-4.917,1.487-7.305,2.459c-2.079,0.893-4.094,1.896-6.068,3.003c-2.145,1.263-4.209,2.637-6.2,4.144
			c-1.626,1.28-3.177,2.641-4.675,4.076c-1.768,1.777-3.419,3.632-4.978,5.592c-1.358,1.799-2.619,3.643-3.792,5.566
			c-1.259,2.179-2.398,4.393-3.277,6.434c-0.941,2.266-1.74,4.562-2.422,6.918c-0.604,2.29-1.071,4.591-1.43,6.933
			c-0.293,2.283-0.463,4.568-0.52,6.873c-0.004,2.465,0.133,4.912,0.416,7.364c0-0.004,0-0.004,0-0.004
			C1360.792,772.872,1361.247,775.233,1361.837,777.576z M1402.098,821.426c-1.239-0.255-2.474-0.557-3.696-0.894
			c-2.516-0.712-4.969-1.578-7.369-2.606c-0.119-0.053-0.233-0.109-0.34-0.176c-0.547-0.239-1.094-0.485-1.633-0.738
			c-8.66-4.085-16.241-10.404-21.96-18.067c-2.81-3.768-5.117-7.867-6.974-12.178c-1.978-4.599-3.267-9.457-4.048-14.396
			c-0.762-4.818-0.783-9.736-0.333-14.586c0.458-4.904,1.616-9.816,3.335-14.427c1.691-4.53,3.894-8.925,6.665-12.895
			c1.404-2.009,2.88-3.972,4.515-5.799c1.619-1.807,3.323-3.518,5.125-5.14c3.65-3.274,7.779-6.001,12.12-8.263
			c4.148-2.159,8.616-3.808,13.17-4.865c9.475-2.201,19.478-2.183,28.885,0.346c9.195,2.476,17.679,7.128,24.695,13.563
			c0.145,0.084,0.281,0.182,0.405,0.3c0.604,0.565,1.193,1.143,1.693,1.646c5.811,5.894,10.322,12.993,13.244,20.733
			c3.243,8.596,4.481,18.065,3.432,27.202c-1.039,9.055-4.091,17.798-9.032,25.472c-1.04,1.612-2.158,3.168-3.341,4.678
			c-5.463,6.946-12.529,12.608-20.468,16.478c-7.709,3.755-16.219,5.749-24.786,5.915c-1.905,0.034-3.809-0.023-5.699-0.175
			C1407.145,822.346,1404.602,821.968,1402.098,821.426z"/>
		<path d="M1232.951,874.004c-1.345,0.072-2.677,0.213-4.005,0.427c-1.429,0.264-2.832,0.612-4.221,1.045
			c-1.228,0.417-2.429,0.894-3.613,1.429c-1.281,0.622-2.517,1.305-3.722,2.067c-1.015,0.68-1.99,1.398-2.94,2.17
			c-1.071,0.927-2.088,1.903-3.056,2.933c-0.877,0.99-1.7,2.01-2.479,3.073c-0.761,1.112-1.473,2.241-2.124,3.42
			c-0.633,1.219-1.202,2.462-1.696,3.743c-0.423,1.171-0.783,2.362-1.086,3.572c-0.315,1.393-0.547,2.796-0.698,4.217
			c-0.123,1.517-0.158,3.026-0.104,4.543c0.085,1.321,0.229,2.624,0.44,3.93c0.262,1.36,0.591,2.697,0.992,4.022
			c0.435,1.313,0.942,2.595,1.511,3.854c0.581,1.202,1.224,2.362,1.93,3.491c0.706,1.086,1.467,2.122,2.285,3.126
			c0.89,1.047,1.834,2.047,2.841,2.991c0.391,0.349,0.785,0.695,1.187,1.027c0.115,0.092,0.23,0.188,0.342,0.28
			c0.508,0.413,1.028,0.812,1.56,1.198c0.219,0.151,0.438,0.302,0.66,0.45c0.833,0.544,1.683,1.053,2.558,1.531
			c1.191,0.62,2.406,1.169,3.655,1.663c1.307,0.481,2.635,0.884,3.987,1.221c1.437,0.314,2.876,0.546,4.336,0.7
			c1.367,0.103,2.732,0.134,4.103,0.097c1.512-0.084,3.005-0.255,4.499-0.513c1.236-0.247,2.456-0.556,3.665-0.916
			c1.369-0.456,2.707-0.98,4.015-1.585c1.206-0.588,2.378-1.241,3.515-1.961c0.984-0.65,1.936-1.352,2.855-2.094
			c1.05-0.886,2.035-1.821,2.977-2.813c0.903-0.995,1.749-2.032,2.544-3.119c0.74-1.066,1.427-2.158,2.053-3.295
			c0.687-1.308,1.29-2.649,1.817-4.032c0.463-1.309,0.855-2.634,1.177-3.983c0.264-1.253,0.481-2.516,0.6-3.669
			c0.004-0.054,0.009-0.111,0.013-0.165l0.005-0.054c0.114-1.37,0.149-2.735,0.112-4.105c-0.072-1.428-0.225-2.848-0.461-4.26
			c-0.247-1.316-0.564-2.616-0.955-3.9c-0.432-1.313-0.935-2.591-1.508-3.85c-0.621-1.288-1.318-2.536-2.087-3.745
			c-0.686-1.03-1.417-2.024-2.199-2.982c-0.87-1.023-1.792-1.989-2.767-2.912c-1.036-0.939-2.12-1.814-3.255-2.638
			c-1.023-0.7-2.068-1.344-3.149-1.944c-1.219-0.633-2.462-1.202-3.742-1.703c-1.308-0.477-2.632-0.88-3.988-1.21
			c-1.394-0.308-2.797-0.533-4.218-0.68C1235.724,873.99,1234.344,873.958,1232.951,874.004z M1218.224,937.071
			c-0.392-0.198-0.776-0.402-1.156-0.61c-1.742-0.953-3.407-2.055-4.957-3.281c-0.034-0.024-0.061-0.048-0.091-0.076
			c-0.458-0.366-0.904-0.741-1.349-1.127c-0.115-0.099-0.218-0.205-0.31-0.321c-4.271-3.868-7.609-8.746-9.6-14.205
			c-3.274-8.966-2.917-19.321,1.381-27.896c2.168-4.325,5.095-8.16,8.705-11.38c3.531-3.147,7.765-5.508,12.242-7.001
			c4.299-1.436,8.894-2.02,13.418-1.734c4.704,0.297,9.293,1.524,13.534,3.581c8.749,4.244,15.582,12.224,18.425,21.527
			c1.254,4.093,1.801,8.396,1.538,12.674c-0.284,4.629-1.471,9.139-3.442,13.332c-2.262,4.809-5.658,9.046-9.785,12.375
			c-0.083,0.094-0.177,0.181-0.277,0.259c-4.164,3.298-9.07,5.63-14.251,6.817c-3.537,0.811-7.189,1.061-10.799,0.77
			C1226.858,940.404,1222.339,939.158,1218.224,937.071z"/>
		<path d="M1342.525,530.481c-1.117-0.022-2.227,0.008-3.343,0.098c-1.143,0.124-2.266,0.304-3.39,0.552
			c-0.977,0.25-1.942,0.536-2.896,0.87c-0.98,0.375-1.938,0.8-2.878,1.272c-0.894,0.48-1.756,1.006-2.596,1.573
			c-0.908,0.648-1.78,1.343-2.616,2.087c-0.726,0.681-1.419,1.394-2.075,2.142c-0.727,0.872-1.4,1.778-2.025,2.724
			c-0.598,0.966-1.147,1.95-1.641,2.971c-0.44,0.986-0.835,1.983-1.175,3.013c-0.332,1.117-0.6,2.24-0.808,3.385
			c-0.164,1.098-0.271,2.194-0.324,3.301c-0.024,1.005,0.004,2.007,0.078,3.013c0.121,1.176,0.309,2.335,0.563,3.489
			c0.257,1.017,0.563,2.013,0.909,3.001c0.358,0.927,0.765,1.834,1.205,2.725c0.526,0.988,1.099,1.937,1.728,2.865
			c0.59,0.827,1.219,1.615,1.887,2.379c0.777,0.839,1.593,1.63,2.457,2.379c0.254,0.208,0.512,0.413,0.77,0.614
			c0.494,0.365,1,0.716,1.51,1.053c1.004,0.623,2.026,1.192,3.084,1.715c0.997,0.442,2.007,0.841,3.04,1.195
			c1.188,0.356,2.381,0.64,3.6,0.869c1.006,0.146,2.008,0.249,3.024,0.313c1.066,0.025,2.122,0.002,3.185-0.071
			c1.147-0.12,2.272-0.293,3.399-0.527c1.035-0.252,2.051-0.545,3.05-0.898c0.987-0.375,1.938-0.796,2.878-1.272
			c0.985-0.534,1.935-1.118,2.856-1.75c0.775-0.566,1.523-1.162,2.246-1.8c0.784-0.723,1.524-1.49,2.228-2.296
			c0.72-0.869,1.385-1.768,2.009-2.707c0.602-0.976,1.156-1.975,1.658-3.006c0.475-1.055,0.89-2.122,1.246-3.223
			c0.275-0.949,0.508-1.908,0.695-2.882c0.179-1.1,0.312-2.209,0.354-3.169c0.008-0.14,0.011-0.277,0.016-0.418
			c0.018-1.077-0.021-2.146-0.112-3.218c-0.124-1.107-0.303-2.194-0.544-3.278c-0.243-0.965-0.528-1.912-0.856-2.848
			c-0.372-0.983-0.792-1.941-1.262-2.877c-0.514-0.958-1.071-1.881-1.685-2.778c-0.623-0.866-1.289-1.692-1.996-2.493
			c-0.715-0.754-1.458-1.475-2.24-2.162c-0.859-0.708-1.748-1.368-2.679-1.992c-0.993-0.615-2.01-1.169-3.066-1.677
			c-0.997-0.435-2.009-0.82-3.043-1.159c-1.058-0.309-2.116-0.561-3.201-0.768c-0.767-0.116-1.535-0.205-2.308-0.267
			C1343.138,530.518,1342.832,530.497,1342.525,530.481z M1324.189,579.076c-0.071-0.056-0.146-0.109-0.218-0.166
			c-0.481-0.349-0.946-0.715-1.402-1.095c0.004-0.003,0.004-0.003,0.008-0.006c-0.062-0.044-0.123-0.093-0.18-0.141
			c-0.02-0.016-0.037-0.032-0.054-0.048c-0.064-0.056-0.124-0.118-0.18-0.181c-2.773-2.44-5.104-5.393-6.769-8.689
			c-2.153-4.267-3.388-9.08-3.253-13.877c0.073-2.513,0.363-5.031,1.061-7.454c0.619-2.169,1.436-4.283,2.534-6.259
			c2.273-4.097,5.424-7.624,9.307-10.259c3.853-2.616,8.278-4.222,12.891-4.816c2.425-0.313,4.93-0.316,7.355,0.01
			c2.471,0.33,4.849,0.959,7.174,1.843c4.52,1.722,8.504,4.722,11.645,8.369c3.039,3.526,5.153,7.873,6.187,12.403
			c0.565,2.478,0.798,5.002,0.725,7.544c-0.123,3.358-0.798,6.656-2.017,9.769c-0.025,0.128-0.064,0.258-0.118,0.388
			c-0.18,0.437-0.37,0.869-0.566,1.293c-0.022,0.045-0.039,0.087-0.061,0.129c-0.548,1.157-1.169,2.277-1.86,3.361
			c-2.64,4.089-6.253,7.525-10.525,9.872c-4.959,2.725-10.564,3.975-16.207,3.638c-0.19-0.012-0.38-0.027-0.574-0.043
			C1333.749,584.23,1328.505,582.254,1324.189,579.076z"/>
		<path d="M1329.909,1337.715c-1.096,0.074-2.175,0.203-2.956,0.349c-1.038,0.208-2.052,0.466-3.058,0.778
			c-0.969,0.333-1.916,0.708-2.845,1.131c-0.909,0.446-1.794,0.938-2.66,1.474c-0.858,0.566-1.683,1.174-2.479,1.828
			c-0.695,0.604-1.359,1.236-2.002,1.903c-0.669,0.736-1.305,1.497-1.893,2.298c-0.044,0.058-0.085,0.112-0.129,0.167
			c-0.037,0.055-0.074,0.109-0.111,0.164c-0.607,0.853-1.145,1.752-1.638,2.672c-0.45,0.877-0.847,1.776-1.199,2.693
			c-0.356,1.007-0.658,2.026-0.905,3.067c-0.232,1.086-0.4,2.177-0.5,3.284c-0.073,1.041-0.089,2.083-0.047,3.125
			c0.063,1.045,0.185,2.083,0.369,3.116c0.207,1.06,0.469,2.102,0.797,3.129c0.311,0.927,0.675,1.834,1.046,2.64
			c0.015,0.034,0.031,0.068,0.046,0.098l0.018,0.041c0.418,0.849,0.875,1.677,1.373,2.482c0.54,0.816,1.12,1.596,1.703,2.321
			c0.659,0.775,1.346,1.513,1.865,2.02c0.171,0.158,0.342,0.32,0.373,0.344c0.749,0.692,1.553,1.324,2.374,1.924
			c0.909,0.626,1.841,1.203,2.813,1.729c0.919,0.46,1.849,0.875,2.808,1.248c0.951,0.333,1.906,0.623,2.883,0.861
			c1.128,0.243,2.259,0.413,3.405,0.521c1.038,0.066,2.073,0.074,3.112,0.035c0.98-0.069,1.949-0.182,2.918-0.334l0.293-0.056
			c0.965-0.2,1.923-0.444,2.871-0.735c0.91-0.313,1.801-0.667,2.681-1.057c0.902-0.44,1.778-0.921,2.635-1.44
			c0.934-0.614,1.828-1.267,2.686-1.974c0.71-0.621,1.387-1.267,2.041-1.943c0.725-0.8,1.403-1.633,2.043-2.509
			c0.552-0.8,1.059-1.625,1.532-2.475c0.488-0.942,0.922-1.9,1.309-2.89c0.372-1.031,0.688-2.077,0.875-2.842
			c0.029-0.135,0.062-0.273,0.091-0.408c0.219-1.014,0.367-2.038,0.465-3.07c0.078-1.055,0.098-2.107,0.061-3.164
			c-0.066-1.059-0.184-2.108-0.339-2.951c-0.013-0.07-0.025-0.139-0.037-0.209c-0.206-1.02-0.464-2.026-0.774-3.018
			c-0.318-0.939-0.68-1.859-1.091-2.763l-0.015-0.03c-0.442-0.923-0.94-1.812-1.483-2.679c-0.524-0.797-1.086-1.564-1.684-2.305
			l-0.056-0.069c-0.645-0.77-1.345-1.487-2.072-2.181c-0.753-0.685-1.537-1.337-2.199-1.816c-0.061-0.045-0.123-0.086-0.185-0.13
			l-0.01-0.004c-0.899-0.625-1.831-1.195-2.792-1.716c-0.88-0.45-1.776-0.851-2.699-1.207c-1.011-0.356-2.029-0.662-3.074-0.909
			c-1.082-0.228-2.166-0.395-3.269-0.503C1332.098,1337.69,1331.01,1337.671,1329.909,1337.715z M1325.574,1389.247
			c-4.05-0.847-7.845-2.522-11.184-4.972c-2.402-1.76-4.496-3.904-6.214-6.309c-0.711-0.981-1.361-2.008-1.939-3.073
			c-0.057-0.102-0.106-0.211-0.144-0.318c-1.829-3.49-2.939-7.359-3.174-11.326c-0.27-4.429,0.5-8.82,2.199-12.916
			c1.694-4.082,4.507-7.8,7.897-10.626c3.421-2.856,7.472-4.875,11.809-5.896c4.548-1.073,9.274-0.911,13.781,0.248
			c5.693,1.46,10.793,4.889,14.35,9.151c1.553,1.854,2.841,3.882,3.873,6.019c0.016,0.034,0.031,0.068,0.046,0.101l0.037,0.082
			c1.003,2.146,1.733,4.406,2.177,6.69c0.002,0.022,0.007,0.044,0.009,0.066c0.016,0.077,0.031,0.154,0.031,0.158
			c0.35,1.963,0.529,3.948,0.461,5.946c-0.063,1.814-0.305,3.592-0.689,5.362c-1.009,4.444-3.084,8.73-6.091,12.176
			c-3.202,3.664-7.252,6.625-11.859,8.259c-1.404,0.496-2.824,0.909-4.217,1.179c-0.044,0.007-0.087,0.014-0.132,0.025l-0.099,0.017
			c-0.205,0.038-0.414,0.071-0.618,0.105c-0.149,0.053-0.303,0.091-0.46,0.114c-2.13,0.322-4.313,0.399-6.472,0.224
			C1327.816,1389.641,1326.685,1389.481,1325.574,1389.247z"/>
		<path d="M980.463,1027.769c-1.122-0.051-2.242-0.087-3.369-0.07c-0.636,0.014-1.272,0.024-1.91,0.055
			c-0.293,0.012-0.583,0.025-0.877,0.045c-0.156,0.013-0.313,0.025-0.472,0.034c-0.307,0.047-0.632,0.053-0.941,0.072
			c-2.245,0.223-4.466,0.552-6.682,1.005c-2.342,0.533-4.637,1.195-6.909,1.979c-2.073,0.774-4.099,1.643-6.091,2.619
			c-1.974,1.024-3.887,2.144-5.751,3.368c-2.033,1.399-3.973,2.898-5.821,4.507c-1.823,1.661-3.534,3.406-5.16,5.26
			c-1.542,1.839-2.97,3.745-4.307,5.733c-1.279,1.979-2.446,4.014-3.353,5.857c-0.981,2.039-1.824,4.129-2.564,6.271
			c-0.75,2.314-1.365,4.654-1.854,7.036c-0.447,2.451-0.75,4.906-0.908,7.387c-0.106,2.341-0.078,4.668,0.069,7
			c0.196,2.358,0.527,4.684,0.986,7.002c0.545,2.451,1.221,4.852,2.04,7.224c0.774,2.127,1.648,4.215,2.59,6.085
			c0.096,0.192,0.197,0.38,0.293,0.569l0.05,0.098c1.067,2.021,2.245,3.971,3.425,5.716c1.29,1.855,2.677,3.634,4.163,5.335
			c1.593,1.771,3.284,3.438,5.081,5.009c1.326,1.136,2.705,2.207,4.128,3.221c0.318,0.221,0.643,0.442,0.968,0.659
			c2.006,1.306,4.08,2.488,5.944,3.444c2.4,1.165,4.845,2.174,7.362,3.046c2.27,0.718,4.554,1.31,6.883,1.78
			c2.385,0.417,4.779,0.711,7.195,0.867c2.489,0.104,4.96,0.073,7.444-0.109c2.444-0.228,4.848-0.597,7.246-1.103
			c2.104-0.494,4.166-1.085,5.932-1.675c0.211-0.073,0.416-0.15,0.628-0.224l0.179-0.065c2.07-0.742,4.074-1.649,6.048-2.619
			c1.914-1,3.764-2.092,5.574-3.274c2.004-1.394,3.924-2.866,5.743-4.437c1.703-1.548,3.313-3.168,4.859-4.873
			c1.654-1.931,3.184-3.944,4.604-6.052c1.211-1.905,2.322-3.858,3.341-5.876c1.001-2.117,1.907-4.263,2.62-6.288
			c0.831-2.513,1.495-5.055,1.997-7.598c0.422-2.366,0.712-4.746,0.852-7.149c0.099-2.338,0.059-4.662-0.102-6.999
			c-0.215-2.334-0.552-4.639-1.006-6.935c-0.538-2.411-1.202-4.778-2.006-7.11c-0.789-2.161-1.694-4.266-2.727-6.32
			c-1.069-2.046-2.241-4.018-3.53-5.937c-1.287-1.847-2.667-3.619-4.093-5.268c-0.103-0.116-0.209-0.233-0.265-0.299
			c-0.046-0.051-0.093-0.101-0.139-0.156c-0.02-0.02-0.037-0.039-0.037-0.039c-1.431-1.585-2.967-3.073-4.344-4.307
			c-1.859-1.608-3.796-3.093-5.831-4.478c-1.921-1.242-3.882-2.385-5.65-3.29c-2.347-1.146-4.739-2.144-7.203-2.997
			c-2.3-0.742-4.626-1.356-7.001-1.833c-2.079-0.377-4.155-0.652-6.254-0.822C981.187,1027.818,980.826,1027.792,980.463,1027.769z
			 M969.916,1140.223c-4.154-0.545-8.237-1.554-12.18-2.959c-5.055-1.798-9.872-4.317-14.254-7.436
			c-0.137-0.098-0.273-0.195-0.409-0.297c-2.141-1.552-4.173-3.246-6.075-5.075c-4.672-4.488-8.651-9.74-11.566-15.462
			c-0.053-0.102-0.106-0.204-0.14-0.275c-4.417-8.626-6.609-18.252-6.469-27.934c0.139-9.625,2.745-19.264,7.485-27.641
			c4.749-8.386,11.572-15.688,19.73-20.84c4.054-2.56,8.389-4.667,12.943-6.172c2.362-0.783,4.755-1.409,7.192-1.912
			c1.168-0.245,2.348-0.427,3.531-0.592c0.584-0.083,1.174-0.143,1.76-0.211c0.368-0.039,0.736-0.088,1.098-0.095
			c0.409-0.064,0.836-0.077,1.254-0.104c2.474-0.154,4.943-0.156,7.417-0.007c4.856,0.291,9.684,1.205,14.313,2.694
			c4.798,1.546,9.367,3.695,13.628,6.385c3.949,2.495,7.558,5.487,10.806,8.835c0.55,0.564,1.073,1.148,1.397,1.517
			c3.23,3.621,6.057,7.618,8.297,11.924c2.265,4.348,3.995,8.942,5.121,13.714c1.103,4.666,1.627,9.432,1.611,14.224
			c-0.015,4.788-0.715,9.6-1.919,14.235c-2.404,9.247-7.174,18.033-13.715,25.011c-3.057,3.261-6.423,6.194-10.11,8.718
			c-0.143,0.158-0.31,0.304-0.496,0.426c-6.408,4.261-13.637,7.213-21.18,8.719c-2.131,0.423-4.288,0.714-6.428,0.895
			c-3.27,0.266-6.548,0.279-9.815,0.015C971.799,1140.447,970.858,1140.346,969.916,1140.223z"/>
		<path d="M1850.047,1116.349c-1.004,0.002-1.996,0.052-2.997,0.155c-1.007,0.132-2,0.318-2.99,0.552
			c-1.041,0.28-2.059,0.606-3.065,0.99c-1.001,0.417-1.976,0.872-2.927,1.391c-0.928,0.538-1.819,1.116-2.689,1.75
			c-0.785,0.608-1.541,1.247-2.267,1.928c-0.741,0.734-1.442,1.497-2.099,2.303c-0.632,0.815-1.217,1.659-1.756,2.529
			c-0.49,0.841-0.935,1.7-1.338,2.577c-0.423,0.987-0.789,1.99-1.103,3.015c-0.312,1.13-0.562,2.264-0.742,3.423
			c-0.118,0.918-0.192,1.84-0.227,2.764c-0.012,1.172,0.042,2.335,0.168,3.5c0.142,1.062,0.339,2.106,0.594,3.145
			c0.195,0.709,0.412,1.416,0.66,2.111c0.091,0.26,0.204,0.511,0.295,0.771l0.036,0.086c0.39,0.934,0.833,1.839,1.318,2.723
			c0.561,0.958,1.169,1.885,1.833,2.776c0.609,0.778,1.249,1.519,1.931,2.235c0.722,0.715,1.472,1.393,2.261,2.034
			c0.792,0.609,1.605,1.176,2.457,1.704c0.899,0.531,1.824,1.01,2.775,1.437c0.928,0.396,1.874,0.743,2.836,1.034
			c1.052,0.298,2.112,0.531,3.184,0.705c1.049,0.15,2.099,0.238,3.158,0.27c0.476,0.006,0.953-0.002,1.427-0.022
			c0.587-0.028,1.172-0.071,1.754-0.133c1.094-0.139,2.172-0.344,3.243-0.611c1.011-0.276,2.001-0.603,2.978-0.986
			c0.934-0.39,1.843-0.829,2.737-1.316c0.897-0.516,1.758-1.078,2.594-1.689c0.82-0.634,1.603-1.307,2.354-2.019
			c0.695-0.698,1.349-1.425,1.974-2.183c0.665-0.859,1.278-1.745,1.854-2.669c0.532-0.913,1.012-1.845,1.447-2.81
			c0.38-0.901,0.716-1.808,1.008-2.741c0.029-0.084,0.054-0.172,0.079-0.261c0.273-1.007,0.495-2.021,0.662-3.05
			c0.143-1.06,0.226-2.122,0.254-3.192c0.003-1.021-0.048-2.043-0.153-3.062c-0.137-1.072-0.34-2.128-0.599-3.174
			c-0.276-1.004-0.601-1.983-0.977-2.956c-0.411-0.982-0.875-1.94-1.392-2.877c-0.507-0.868-1.054-1.698-1.641-2.515
			c-0.622-0.826-1.299-1.606-2.007-2.357c-0.731-0.738-1.494-1.427-2.296-2.088c-0.85-0.653-1.732-1.259-2.643-1.82
			c-0.859-0.492-1.735-0.945-2.637-1.357c-0.911-0.384-1.833-0.722-2.776-1.015c-1.059-0.298-2.125-0.543-3.208-0.725
			c-0.586-0.083-1.172-0.149-1.759-0.196C1851.103,1116.391,1850.576,1116.363,1850.047,1116.349z M1844.371,1168.349
			c-0.089-0.018-0.174-0.039-0.258-0.068c-3.005-0.6-5.913-1.68-8.581-3.234c-3.971-2.31-7.306-5.521-9.81-9.372
			c-0.671-1.032-1.254-2.123-1.788-3.234c-0.222-0.469-0.498-0.982-0.648-1.493c-0.044-0.119-0.093-0.239-0.137-0.358
			c-0.215-0.552-0.412-1.105-0.591-1.668c-2.813-8.817-1.029-18.833,4.667-26.125c3.007-3.846,6.955-6.837,11.432-8.767
			c4.214-1.814,8.842-2.537,13.408-2.19c4.133,0.312,8.284,1.594,11.862,3.68c1.689,0.984,3.262,2.104,4.736,3.386
			c1.47,1.281,2.767,2.743,3.912,4.246c0.019,0.03,0.042,0.058,0.065,0.088l0.059,0.077c2.603,3.516,4.38,7.605,5.173,11.906
			c0.502,2.722,0.571,5.489,0.256,8.217c0.011,0.135,0.006,0.275-0.016,0.417c-0.039,0.257-0.066,0.511-0.116,0.759
			c-0.011,0.097-0.023,0.193-0.038,0.289c-0.181,1.169-0.462,2.323-0.792,3.462c-1.104,3.7-2.917,7.116-5.365,10.109
			c-3.359,4.099-7.913,7.21-12.936,8.894c-3.616,1.242-7.548,1.714-11.381,1.404
			C1846.437,1168.693,1845.395,1168.551,1844.371,1168.349z"/>
		<g>
			<path d="M1776.492,3467.355c12.151,4.272,25.018,5.764,37.822,6.391c19.873,1.06,39.806-0.089,59.585-2.072
				c49.964-5.253,99.668-13.297,148.755-23.997c61.124-13.805,121.495-31.068,180.784-51.349
				c29.05-10.152,57.956-20.908,85.745-34.177c17.627-8.351,34.809-17.752,50.844-28.88c10.71-7.822,21.393-16.159,29.137-27.066
				c9.738-13.412,13.258-30.076,3.26-44.379c-11.214-15.718-30.24-24.074-48.189-29.529c-3.154-1.431-6.612-2.138-9.966-3.042
				c-9.906-2.648-20.009-4.434-30.146-5.92c-15.402-2.35-30.891-4.03-46.406-5.417c-31.19-2.925-62.536-3.888-93.852-3.156
				c-30.167,0.655-60.784,2.935-89.35,13.232c2.438-22.562-2.208-45.036-6.051-67.181c-7.402-39.926-15.433-79.73-23.934-119.438
				c-30.217-134.755-56.463-271.456-106.83-400.51c69.793-16.624,157.895-39.148,202.607-99.399
				c10.057-13.41,15.754-29.306,19.332-45.558c2.827-13.043,2.761-26.417,1.609-39.621c-2.9-30.436-9.605-60.405-17.584-89.878
				c-22.28-79.304-52.638-156.073-83.106-232.52c-64.292-157.158-133.572-312.232-199.198-468.829
				c-2.93-7.17-5.731-14.405-8.839-21.501c-3.293-7.912-10.995-5.8-8.481,2.291c14.308,38.442,32.091,77.601,48.331,115.553
				c72.98,173.519,152.072,344.708,215.32,522.132c9.285,26.36,17.96,52.936,25.574,79.831
				c6.169,21.819,11.351,43.926,15.182,66.277c2.209,13.68,4.142,27.449,4.393,41.325c0.415,35.81-14.478,65.295-41.531,88.316
				c-47.907,41.443-116.7,58.488-177.131,72.958c-0.104-0.059-0.165-0.093-0.269-0.151c-1.565-4.774-3.768-9.287-5.802-13.863
				c-3.892-8.636-8.052-17.163-12.702-25.416c8.031-0.165,16.021-1.058,23.931-2.45c37.666-6.084,75.23-15.02,109.178-32.949
				c22.705-12.19,44.32-28.449,58.232-50.474c7.38-11.993,11.775-25.636,14.23-39.447c5.641-32.555-4.234-65.058-12.03-96.44
				c-32.641-119.639-81.907-233.88-129.051-348.334c-32.248-75.606-65.674-150.774-102.25-224.394
				c-19.202-38.105-39.832-75.574-63.488-111.113c-19.274-28.705-40.462-56.496-66.434-79.484c23.005-7.178,46-14.807,67.692-25.399
				c16.396-8.006,39.925-24.863,34.6-44.693c-7.086-26.386-49.335-33.096-73.437-34.664c-12.254-0.755-24.552-0.493-36.82-0.236
				c-20.234,0.439-40.461,1.872-60.404,5.403c-19.713,3.382-39.203,8.655-57.994,15.479c-22.87,8.274-45.321,18.179-65.564,31.776
				c-25.986,17.299-50.505,39.664-62.222,69.236c-8.372,21.048-8.528,44.132-8.309,66.474
				c1.735,71.455,7.507,142.732,12.538,214.013c11.375,145.534,21.239,291.384,41.37,436.039
				c5.009,34.725,10.934,69.357,18.809,103.555c8.423,36.127,18.962,71.918,34.003,105.883
				c15.279,33.959,36.273,66.802,66.818,88.899c10.43,7.569,21.732,13.881,33.643,18.833c9.805,3.987,19.974,7.44,30.433,9.182
				c18.614,3.118,37.566,3.162,56.296,1.067c50.185-6.063,100.036-15.002,149.446-25.659
				c42.433,107.597,66.997,221.079,92.242,333.644c15.769,72.522,32.522,144.979,43.767,218.362
				c1.395,12.299,2.224,24.856-0.046,37.1c-11.303,5.456-25.08,12.129-31.763,23.175c-3.368,5.487-4.285,12.729,0.963,17.382
				c3.158,3.122,8.125,3.927,12.304,2.744c4.796-1.361,8.52-4.937,11.762-8.556c7.061-8.028,12.252-17.768,14.776-28.162
				c27.931-11.374,58.473-13.716,88.334-14.591c46.722-1.218,93.759,1.528,139.878,8.138c14.154,2.068,28.3,4.639,41.895,9.172
				c24.666,7.864,59.683,25.522,41.399,55.774c-9.305,15.014-23.873,24.937-38.21,34.559
				c-45.494,28.343-96.484,46.186-147.029,63.239c-91.91,30.001-186.349,53.434-282.372,64.964
				c-25.273,3.064-51.009,5.777-76.244,4.91c-14.642-0.502-29.52-1.653-43.276-7.047c-9.163-3.567-19.133-9.989-22.359-19.446
				c-5.3-19.221,12.332-34.037,25.272-45.19c30.652-24.624,67.654-39.554,99.293-62.718c18.627-13.386,34.938-29.863,48.52-48.329
				c8.635-11.482,16.339-23.67,22.734-36.552c12.219-25.492,19.537-53.035,24.546-80.778c6.03-37.06,6.686-74.808,4.866-112.251
				c-2.784-52.465-11.438-104.348-21.204-155.905c-13.454-70.046-27.474-140.06-45.325-209.137
				c-2.811-10.606-5.948-21.628-9.34-31.568c-2.29-6.711-10.36-4.499-8.259,3.018c0.973,3.482,1.897,7.098,2.928,10.469
				c10.519,35.552,18.457,71.83,26.425,108.027c14.185,66.64,28.113,133.438,38.158,200.848c3.705,27.343,6.625,54.824,7.749,82.39
				c1.539,40.311,0.225,81.09-8.679,120.565c-4.554,19.903-10.387,39.635-19.157,58.12c-6.884,14.624-15.776,28.249-25.657,41.008
				c-12.438,16.16-27.06,30.678-43.651,42.573c-30.82,22.491-66.667,37.218-96.792,60.762
				c-16.182,12.954-35.492,30.052-32.238,52.927C1747.28,3452.433,1762.28,3462.486,1776.492,3467.355z M2041.294,3243.868
				c-2.243,5.526-5.281,10.733-9.099,15.326c-2.179,2.514-4.375,5.135-7.333,6.746c-1.827,1.014-5.072,1.133-5.563-1.293
				c-0.662-3.267,2.698-6.729,5.02-9.33c4.209-4.146,9.349-7.179,14.45-10.094
				C2039.593,3244.742,2040.442,3244.303,2041.294,3243.868z M1889.895,2583.517c-7.363-11.582-16.616-24.811-29.142-31.071
				c-17.508-7.844-26.673,8.099-14.858,21.772c9.502,11.271,24.331,16.718,38.676,18.182c7.839,13.438,14.521,27.524,20.489,41.885
				c-48.028,10.264-96.449,18.971-145.206,24.944c-19.03,2.049-38.472,2.627-57.31-1.221c-20.002-4.012-39.059-12.569-55.806-24.157
				c-16.567-10.928-29.912-26.197-41.333-42.279c-15.02-21.445-26.132-45.268-35.216-69.753
				c-14.644-39.824-24.579-81.223-32.262-122.911c-16.847-93.087-25.351-187.436-33.915-281.576
				c-11.309-137.909-23.514-275.842-29.293-414.116c-0.382-23.273-1.598-47.293,5.454-69.661
				c8.806-27.433,30.199-48.79,53.119-65.261c30.086-21.714,65.077-35.373,100.62-45.235c33.865-9.158,69.084-11.388,104.036-11.375
				c17.525-0.141,35.195,1.243,52.062,6.247c10.551,3.298,22.329,8.333,28.789,17.536c2.684,3.953,4.059,8.925,2.733,13.602
				c-1.278,3.654-3.334,6.113-5.783,8.749c-8.992,8.741-20.312,14.534-31.63,19.681c-20.93,9.226-43.018,16.673-64.777,23.178
				c-16.934-13.678-36.869-24.725-58.72-27.509c-18.083-2.537-36.369,0.973-54.073,4.494c-9.73,1.938-19.302,4.544-28.781,7.445
				c-14.328,4.45-42.631,15.997-36.866,35.094c5.269,17.452,33.865,19.198,50.171,18.49c43.048-3.617,84.793-16.13,126.206-27.812
				c22.618,18.974,41.387,42.022,58.551,65.929c21.704,30.599,40.637,63.066,58.322,96.125
				c42.1,80.34,78.465,163.365,114.344,246.488c42.771,102.884,86.357,205.787,119.581,312.24
				c8.959,29.898,17.602,59.988,23.11,90.741c2.033,12.414,3.109,25.088,1.587,37.621c-4.399,34.617-19.309,55.8-47.192,76.015
				c-9.959,7.351-21.662,13.74-32.753,18.748c-20.681,9.418-42.399,16.434-64.703,20.795c-16.373,3.149-32.763,6.925-49.442,7.919
				C1895.756,2583.579,1892.825,2583.656,1889.895,2583.517z M1592.113,1629.389c-12.441,0.696-33.681,0.52-41.627-10.318
				c-3.302-4.964,1.251-10.111,5.06-13.191c6.258-4.965,13.687-8.092,21.176-10.704c9.246-3.182,18.718-5.642,28.26-7.754
				c15.951-3.239,32.169-6.705,48.532-5.7c20.156,1.066,39.037,10.213,54.9,22.16
				C1670.203,1614.49,1631.739,1625.756,1592.113,1629.389z M1851.641,2566.533c-6.508-11.082,5.811-6.494,10.239-2.621
				c6.602,5.23,11.335,11.371,16.062,18.149C1867.93,2579.727,1857.755,2575.115,1851.641,2566.533z"/>
			<path d="M1898.675,2669.334c0.002,0.003,0.002,0.008,0.004,0.011C1898.677,2669.342,1898.676,2669.338,1898.675,2669.334z"/>
			<polygon points="1724.17,1599.235 1724.166,1599.235 1724.171,1599.235 			"/>
			<path d="M1981.897,2463.898c0-0.003,0-0.003,0-0.003c0.001,0.006,0.002,0.012,0.003,0.018
				C1981.9,2463.907,1981.899,2463.902,1981.897,2463.898z"/>
			<path d="M1741.317,2457.081c0.006-0.003,0.012-0.006,0.019-0.009c-0.008,0.004-0.017,0.008-0.025,0.012
				C1741.313,2457.083,1741.315,2457.082,1741.317,2457.081z"/>
			<polygon points="1696.029,2417.489 1696.029,2417.494 1696.029,2417.491 			"/>
			<path d="M1733.081,2395.93c-0.007,0-0.014-0.004-0.021-0.004c0.011,0,0.018,0.004,0.028,0.005
				C1733.088,2395.931,1733.084,2395.931,1733.081,2395.93z"/>
			<path d="M1864.562,2247.604c-0.021-0.008-0.043-0.016-0.064-0.024c0.021,0.008,0.043,0.016,0.068,0.024H1864.562z"/>
			<path d="M1751.657,2519.903c0.011-0.007,0.022-0.017,0.037-0.024c-0.033,0.02-0.063,0.044-0.093,0.064
				C1751.62,2519.931,1751.638,2519.917,1751.657,2519.903z"/>
			<path d="M1828.22,2405.581c0.018,0.008,0.039,0.012,0.06,0.02C1828.262,2405.594,1828.238,2405.589,1828.22,2405.581z"/>
			<path d="M1843.136,2402.2c-0.004-0.005,0.026-0.025,0.034-0.035C1843.158,2402.176,1843.147,2402.187,1843.136,2402.2z"/>
			<path d="M1819.983,2383.261c0.054-0.084,0.107-0.169,0.161-0.249c0,0.003-0.004,0.007-0.004,0.011
				C1820.087,2383.099,1820.037,2383.18,1819.983,2383.261z"/>
			<path d="M1821.11,2381.682c0.006-0.008,0.013-0.014,0.019-0.023C1821.124,2381.669,1821.12,2381.676,1821.11,2381.682z"/>
			<path d="M2029.418,2405.867c-0.088,0.047-0.176,0.094-0.265,0.141C2029.24,2405.959,2029.329,2405.912,2029.418,2405.867z"/>
			<path d="M2033.507,2402.042c-0.008,0.01-0.015,0.021-0.019,0.032C2033.493,2402.06,2033.498,2402.052,2033.507,2402.042z"/>
			<path d="M2013.254,2399.947c-0.013-0.037-0.026-0.069-0.039-0.102c0.016,0.04,0.033,0.08,0.046,0.117
				C2013.257,2399.958,2013.258,2399.951,2013.254,2399.947z"/>
			<path d="M1813.767,2264.342c0.087-0.018,0.174-0.04,0.261-0.062c-0.095,0.025-0.193,0.05-0.291,0.072
				C1813.745,2264.348,1813.755,2264.345,1813.767,2264.342z"/>
			<path d="M1819.155,2261.355c-0.004,0.007-0.011,0.01-0.018,0.017c0.007-0.007,0.015-0.014,0.022-0.024
				c0.004,0,0.004,0,0.004-0.003c0.004,0,0.004-0.004,0.007-0.003C1819.164,2261.347,1819.161,2261.35,1819.155,2261.355z"/>
			<path d="M1693.229,2504.869c-0.047-0.084-0.094-0.169-0.142-0.257C1693.137,2504.695,1693.183,2504.783,1693.229,2504.869z"/>
			<path d="M1962.702,2492.044c-0.018-0.004-0.04-0.009-0.057-0.013c0.021,0.005,0.043,0.009,0.061,0.013H1962.702z"/>
			<path d="M1961.56,2491.673c-0.014-0.008-0.028-0.012-0.042-0.019C1961.532,2491.661,1961.546,2491.662,1961.56,2491.673z"/>
			<path d="M1956.993,2488.34c-0.062-0.074-0.12-0.152-0.182-0.23C1956.875,2488.185,1956.935,2488.261,1956.993,2488.34z"/>
			<path d="M1954.885,2478.761c0-0.002,0.001-0.004,0.002-0.006C1954.886,2478.757,1954.885,2478.759,1954.885,2478.761z"/>
			<path d="M1957.739,2473.709C1957.738,2473.709,1957.738,2473.709,1957.739,2473.709c0.026-0.028,0.051-0.054,0.079-0.08
				C1957.791,2473.654,1957.765,2473.682,1957.739,2473.709z"/>
			<path d="M1807.902,2475.142c11.404,7.365,24.94-5.317,18.391-17.211c-3.628-6.671-13.097-8.663-19.069-3.943
				C1800.143,2459.036,1800.506,2470.566,1807.902,2475.142z M1821.67,2459.262c4.804,6.247-1.18,15.195-8.785,13.149
				c0.004,0,0.004,0,0.004,0c-3.219-0.822-5.731-3.687-6.14-6.982C1805.623,2457.013,1816.53,2452.516,1821.67,2459.262z"/>
			<path d="M1826.297,2457.935c-0.004,0-0.003-0.004-0.003-0.004c-0.003-0.005-0.006-0.01-0.009-0.016
				C1826.289,2457.922,1826.293,2457.928,1826.297,2457.935z"/>
			<path d="M1826.182,2457.74c0.013,0.022,0.025,0.041,0.037,0.065C1826.207,2457.785,1826.195,2457.763,1826.182,2457.74z"/>
			<path d="M1801.945,2623.094c-0.012,0.006-0.024,0.015-0.039,0.021C1801.919,2623.107,1801.932,2623.1,1801.945,2623.094z"/>
			<path d="M1807.922,2609.088c-0.002-0.015-0.006-0.031-0.01-0.047C1807.918,2609.057,1807.921,2609.072,1807.922,2609.088z"/>
			<path d="M1899.493,2547.133c5.283,11.462,21.994,9.229,23.977-3.288c1.311-8.147-6.177-15.579-14.314-14.259
				C1901.057,2530.652,1896.115,2539.719,1899.493,2547.133z M1915.515,2535.453c5.234,3.449,4.286,11.918-1.63,14.05
				c-4.859,1.988-10.714-1.771-10.858-7.037C1902.578,2535.978,1910.208,2531.704,1915.515,2535.453z"/>
			<path d="M1607.694,2408.824c-0.03,0.014-0.057,0.031-0.091,0.045C1607.634,2408.855,1607.664,2408.839,1607.694,2408.824z"/>
			<path d="M1642.162,2555.506c-0.027-0.037-0.055-0.071-0.082-0.107c0.034,0.044,0.069,0.089,0.107,0.133
				C1642.175,2555.524,1642.169,2555.513,1642.162,2555.506z"/>
			<path d="M1938.82,2364.656c-0.011,0.014-0.023,0.031-0.034,0.049c0.03-0.042,0.057-0.081,0.084-0.123
				C1938.854,2364.607,1938.835,2364.632,1938.82,2364.656z"/>
			<path d="M1940.205,2355.781c-0.016-0.058-0.035-0.116-0.055-0.175c0.026,0.073,0.049,0.146,0.071,0.222
				C1940.214,2355.811,1940.211,2355.796,1940.205,2355.781z"/>
			<path d="M1928.671,2348.923c0.098-0.018,0.196-0.036,0.297-0.053C1928.87,2348.89,1928.767,2348.906,1928.671,2348.923z"/>
			<path d="M1959.295,2203.705c-0.013-0.022-0.027-0.044-0.041-0.066c0.014,0.019,0.024,0.037,0.038,0.056
				C1959.292,2203.698,1959.295,2203.701,1959.295,2203.705z"/>
			<path d="M1685.942,2330.641c0.002-0.001,0.003-0.001,0.005-0.002c-0.023,0.013-0.046,0.026-0.071,0.039
				C1685.898,2330.664,1685.92,2330.654,1685.942,2330.641z"/>
			<path d="M1565.193,2374.016c-0.047-0.088-0.091-0.176-0.134-0.264C1565.104,2373.839,1565.15,2373.927,1565.193,2374.016z"/>
			<path d="M2035.86,2305.114c-0.015,0.1-0.033,0.2-0.051,0.297C2035.825,2305.313,2035.841,2305.212,2035.86,2305.114z"/>
			<path d="M2053.845,2498.884c-0.025,0.002-0.047,0.009-0.072,0.011c0.032-0.006,0.065-0.012,0.098-0.018
				C2053.863,2498.881,2053.852,2498.881,2053.845,2498.884z"/>
			<path d="M2045.395,2496.263c-0.007-0.007-0.014-0.011-0.021-0.015C2045.383,2496.247,2045.389,2496.257,2045.395,2496.263z"/>
			<path d="M1534.759,1972.089c-0.04,0.011-0.08,0.025-0.121,0.035C1534.675,1972.112,1534.719,1972.099,1534.759,1972.089z"/>
			<path d="M1700.39,2140.234c2.39,6.6,11.3,9.106,16.789,4.734c6.669-4.963,5.388-15.647-2.301-18.838
				C1706.009,2122.31,1696.815,2131.273,1700.39,2140.234z M1711.592,2142.495c-8.393,1.041-10.26-11.059-1.935-12.582
				C1717.949,2128.985,1719.798,2140.903,1711.592,2142.495z"/>
			<path d="M1712.877,2347.865c9.466-2.547,12.342-15.053,5.026-21.54c-7.725-7.052-20.459-1.915-21.093,8.532
				C1696.095,2343.385,1704.684,2350.359,1712.877,2347.865z M1711.819,2328.029c6.26,1.849,7.653,10.518,2.273,14.221
				c-4.824,3.612-12.201,0.254-12.672-5.746C1700.708,2330.963,1706.539,2326.214,1711.819,2328.029z"/>
			<path d="M1658.885,2222.537c9.178,4.312,18.956-5.084,14.993-14.435c-2.489-6.337-10.966-8.838-16.505-4.9
				C1650.248,2207.957,1651.121,2218.968,1658.885,2222.537z M1670.119,2211.706c0.69,8.616-11.714,10.05-12.999,1.49
				C1656.392,2204.555,1668.847,2203.139,1670.119,2211.706z"/>
			<path d="M1774.527,2595.691L1774.527,2595.691c10.346,1.402,18.694-9.422,14.635-19.065
				c-4.292-10.779-19.392-11.785-25.086-1.688C1759.118,2583.422,1764.78,2594.615,1774.527,2595.691z M1778.525,2572.764
				c7.441,1.762,9.537,11.867,3.431,16.46c-5.421,4.422-14.152,0.893-15.002-6.042
				C1765.877,2576.752,1772.245,2571.021,1778.525,2572.764z"/>
			<path d="M1636.238,2011.859c4.084,4.259,11.488,1.717,12.207-4.11c0.833-5.03-4.56-9.475-9.337-7.742
				C1634.129,2001.549,1632.515,2008.213,1636.238,2011.859z M1643.893,2006.591c0.239,3.341-4.689,3.824-5.111,0.501
				C1638.496,2003.706,1643.512,2003.22,1643.893,2006.591z"/>
			<path d="M1785.332,2201.218c-6.923,2.479-7.036,12.431-0.178,15.071c4.752,1.998,10.599-1.587,10.941-6.753
				C1796.762,2203.809,1790.705,2199.136,1785.332,2201.218z M1784.713,2209.535c-0.883-4.732,6.116-5.872,6.794-1.11
				C1791.897,2212.687,1785.703,2213.702,1784.713,2209.535z"/>
			<path d="M1877.931,2391.427c6.189,5.034,15.642-0.125,14.749-8.052c-0.428-5.745-6.874-9.74-12.221-7.622
				C1873.863,2378.072,1872.442,2387.186,1877.931,2391.427z M1888.078,2383.666c0.688,5.907-7.914,7.141-8.93,1.284
				C1878.452,2379.039,1887.083,2377.796,1888.078,2383.666z"/>
			<path d="M1692.688,2463.707c5.608-3.337,5.987-11.678,0.808-15.598c-5.163-4.136-13.509-1.332-15.016,5.147
				C1676.313,2461.446,1685.553,2468.237,1692.688,2463.707z M1692.582,2455.379c0.163,6.441-9.23,6.965-9.795,0.55
				C1682.587,2449.456,1692.061,2448.906,1692.582,2455.379z"/>
			<path d="M1723.687,1942.573c0.068,0.001,0.134,0.018,0.202,0.022C1723.821,1942.588,1723.754,1942.58,1723.687,1942.573z"/>
			<path d="M1731.682,1930.427c-3.34-6.295-12.8-5.595-15.118,1.155c-2.523,6.99,5.108,13.565,11.659,10.078
				C1732.204,1939.654,1733.878,1934.323,1731.682,1930.427z M1720.733,1934.804c-0.541-4.758,6.48-5.743,7.281-1.029
				C1728.597,1938.639,1721.517,1939.639,1720.733,1934.804z"/>
			<path d="M1818.062,2042.802c-0.78-6.018-7.032-10.373-12.943-8.968c-10.186,2.199-11.435,16.405-1.846,20.421
				C1810.829,2057.501,1819.317,2050.934,1818.062,2042.802z M1806.175,2038.311c8-1.37,10.398,10.162,2.477,12.046
				C1800.683,2051.756,1798.291,2040.162,1806.175,2038.311z"/>
			<path d="M1901.238,2220.636c-5.299-4.909-14.393-2.701-16.766,4.147c-2.969,7.84,4.52,15.977,12.58,13.654
				C1904.898,2236.335,1907.317,2226.014,1901.238,2220.636z M1890.536,2223.896c6.065-4.737,13.231,3.943,7.421,8.996
				C1891.91,2237.591,1884.762,2228.941,1890.536,2223.896z"/>
			<path d="M1979.469,2428.367c8.422,4.451,18.46-2.833,16.862-12.189c-1.308-8.376-11.31-12.548-18.191-7.603
				C1971.118,2413.343,1971.869,2424.584,1979.469,2428.367z M1991.876,2417.683c0.206,9.309-13.258,10.017-14.03,0.739
				C1977.656,2409.156,1991.073,2408.452,1991.876,2417.683z"/>
			<path d="M1754.31,2358.662c5.157,3.382,12.756,0.23,14.001-5.82c1.973-8.361-7.731-14.809-14.638-9.667
				C1748.397,2346.891,1748.745,2355.397,1754.31,2358.662z M1763.954,2350.589c0.003,6.213-9.101,6.499-9.477,0.287
				C1754.431,2344.58,1763.603,2344.3,1763.954,2350.589z"/>
		</g>
		<path d="M1539.242,939.771c-1.42,0.503-2.805,1.074-4.17,1.722c-1.442,0.727-2.835,1.527-4.189,2.413
			c-1.254,0.854-2.448,1.782-3.595,2.768c-1.125,1.014-2.194,2.085-3.209,3.209c-0.961,1.118-1.863,2.28-2.709,3.487
			c-0.824,1.235-1.574,2.5-2.264,3.809c-0.702,1.394-1.316,2.817-1.832,4.242c-0.496,1.431-0.906,2.881-1.242,4.36
			c-0.298,1.481-0.514,2.967-0.663,4.467c-0.122,1.622-0.149,3.239-0.087,4.867c0.103,1.659,0.301,3.3,0.601,4.931
			c0.339,1.669,0.784,3.301,1.229,4.628c0.509,1.445,1.086,2.854,1.732,4.208c0.737,1.469,1.551,2.889,2.457,4.259
			c0.779,1.132,1.609,2.221,2.496,3.266c1.057,1.206,2.174,2.342,3.361,3.416c1.187,1.033,2.428,1.996,3.482,2.718
			c1.296,0.875,2.639,1.669,4.026,2.388c1.302,0.648,2.63,1.222,3.996,1.724c0.065,0.021,0.129,0.042,0.196,0.069
			c1.392,0.477,2.806,0.874,4.244,1.194c1.665,0.334,3.333,0.566,5.024,0.708c1.427,0.086,2.845,0.103,4.272,0.052
			c1.593-0.097,3.169-0.279,4.736-0.551c1.624-0.328,3.212-0.739,4.79-1.248c1.419-0.495,2.798-1.057,4.155-1.692
			c1.486-0.742,2.916-1.562,4.308-2.469c1.274-0.877,2.488-1.814,3.663-2.822c1.003-0.909,1.968-1.85,2.89-2.843
			c1.147-1.309,2.21-2.668,3.027-3.86c0.834-1.253,1.593-2.542,2.288-3.875c0.644-1.301,1.218-2.629,1.711-3.944
			c0.033-0.09,0.063-0.179,0.078-0.22c0.011-0.032,0.024-0.065,0.035-0.098c0.022-0.061,0.044-0.122,0.045-0.13
			c0.455-1.302,0.835-2.636,1.111-3.893c0.008-0.043,0.018-0.09,0.029-0.134l0.018-0.09c0.021-0.094,0.039-0.184,0.043-0.211
			c0.311-1.548,0.535-3.106,0.669-4.68c0.103-1.551,0.11-3.096,0.035-4.646c-0.123-1.605-0.321-3.188-0.608-4.77
			c-0.315-1.516-0.708-3.001-1.183-4.473c-0.524-1.504-1.13-2.969-1.815-4.406c-0.705-1.384-1.477-2.726-2.327-4.021
			c-0.875-1.278-1.81-2.501-2.815-3.676c-0.962-1.078-1.976-2.099-3.043-3.069c-1.132-0.987-2.313-1.906-3.54-2.77
			c-1.24-0.827-2.511-1.589-3.836-2.283c-1.438-0.714-2.899-1.347-4.408-1.902c-1.387-0.467-2.786-0.867-4.212-1.198
			c-1.575-0.33-3.162-0.565-4.768-0.709c-1.557-0.101-3.106-0.122-4.665-0.064c-1.673,0.117-3.319,0.313-4.965,0.613
			c-0.57,0.119-1.137,0.25-1.699,0.392C1541.168,939.179,1540.202,939.459,1539.242,939.771z M1554.568,1013.157
			c-2.951,0.287-5.922,0.246-8.866-0.115c-1.819-0.224-3.624-0.586-5.392-1.053c-0.911-0.242-1.812-0.519-2.698-0.83
			c-0.097-0.031-0.19-0.063-0.281-0.1c-0.477-0.169-0.951-0.346-1.425-0.531c-0.144-0.056-0.287-0.109-0.431-0.166
			c-0.081-0.028-0.157-0.064-0.229-0.102c-0.357-0.151-0.714-0.302-1.067-0.466c-1.906-0.863-3.744-1.872-5.489-3.024
			c-4.011-2.64-7.511-5.987-10.354-9.849c-5.682-7.709-8.437-17.6-7.541-27.133c0.446-4.753,1.663-9.36,3.709-13.682
			c1.963-4.149,4.685-7.895,7.903-11.158c3.286-3.332,7.207-5.967,11.428-7.958c4.28-2.021,8.937-3.179,13.645-3.579
			c9.406-0.804,18.961,1.945,26.615,7.436c3.696,2.653,6.88,5.957,9.481,9.683c2.759,3.957,4.718,8.42,5.92,13.085
			c1.504,5.854,1.558,12.058,0.335,17.909c-0.009,0.039-0.017,0.078-0.027,0.114l-0.018,0.09c-0.37,1.685-0.839,3.339-1.416,4.968
			c-1.623,4.527-4.021,8.763-7.141,12.428c-3.167,3.718-6.94,6.79-11.189,9.189c-1.253,0.709-2.561,1.35-3.899,1.914
			c-0.078,0.042-0.158,0.081-0.239,0.112c-1.779,0.73-3.612,1.333-5.474,1.802
			C1558.504,1012.625,1556.542,1012.967,1554.568,1013.157z"/>
		<path d="M1540.198,1198.953c-0.838,0.282-1.658,0.603-2.463,0.973c-0.792,0.392-1.559,0.823-2.303,1.3
			c-0.674,0.459-1.324,0.942-1.95,1.463c-0.673,0.596-1.313,1.221-1.917,1.889c-0.508,0.592-0.985,1.202-1.437,1.835
			c-0.465,0.703-0.896,1.42-1.291,2.165c-0.343,0.699-0.648,1.403-0.933,2.127c-0.272,0.792-0.512,1.591-0.712,2.402
			c-0.172,0.833-0.304,1.664-0.399,2.512c-0.062,0.843-0.087,1.688-0.066,2.536c0.046,0.845,0.136,1.687,0.265,2.523
			c0.168,0.9,0.373,1.791,0.65,2.652c0.006,0.024,0.016,0.048,0.021,0.069c0.276,0.802,0.588,1.581,0.94,2.345
			c0.376,0.758,0.788,1.493,1.24,2.21c0.477,0.714,0.99,1.398,1.542,2.056c0.56,0.634,1.151,1.242,1.777,1.812
			c0.63,0.557,1.298,1.072,1.986,1.551c0.682,0.455,1.385,0.875,2.109,1.26c0.776,0.383,1.566,0.722,2.375,1.019
			c0.726,0.247,1.458,0.456,2.203,0.632c0.858,0.181,1.726,0.314,2.597,0.399c0.817,0.061,1.637,0.077,2.463,0.055
			c0.871-0.049,1.737-0.145,2.599-0.287c0.842-0.16,1.669-0.369,2.488-0.623c0.824-0.278,1.634-0.597,2.425-0.963
			c0.766-0.378,1.506-0.795,2.226-1.251c0.688-0.463,1.351-0.956,1.986-1.483c0.638-0.561,1.242-1.151,1.816-1.775
			c0.029-0.033,0.058-0.063,0.087-0.096c0.555-0.641,1.076-1.31,1.562-2.004c0.437-0.652,0.835-1.323,1.198-2.016
			c0.358-0.714,0.675-1.443,0.955-2.188c0.277-0.786,0.509-1.586,0.702-2.396c0.178-0.839,0.312-1.677,0.401-2.531
			c0.065-0.862,0.084-1.728,0.055-2.592c-0.046-0.86-0.142-1.712-0.278-2.56c-0.156-0.81-0.354-1.61-0.593-2.396
			c-0.282-0.856-0.612-1.693-0.99-2.514c-0.377-0.759-0.791-1.489-1.241-2.203c-0.504-0.748-1.04-1.463-1.622-2.155
			c-0.563-0.63-1.156-1.23-1.782-1.799c-0.611-0.525-1.247-1.018-1.906-1.486c-0.695-0.463-1.415-0.89-2.155-1.279
			c-0.669-0.329-1.353-0.627-2.055-0.896c-0.851-0.301-1.712-0.552-2.595-0.76c-0.826-0.17-1.654-0.292-2.491-0.374
			c-0.812-0.059-1.621-0.074-2.435-0.05c-0.849,0.047-1.686,0.139-2.524,0.272c-0.488,0.093-0.971,0.2-1.45,0.321
			C1540.917,1198.746,1540.557,1198.845,1540.198,1198.953z M1541.562,1240.924c-4.648-0.88-8.91-3.175-12.304-6.456
			c-2.785-2.689-4.834-6.128-6.013-9.804c-0.688-2.231-1.071-4.516-1.131-6.86c-0.058-2.304,0.279-4.607,0.875-6.832
			c1.21-4.519,3.879-8.62,7.396-11.683c3.547-3.09,7.959-5.003,12.607-5.651c4.387-0.608,8.917,0.142,12.949,1.935
			c4.09,1.819,7.583,4.86,10.068,8.567c1.752,2.608,2.944,5.546,3.546,8.611c0.026,0.075,0.046,0.152,0.062,0.229
			c0.001,0.003,0.002,0.007,0.003,0.01c0.017,0.096,0.035,0.195,0.048,0.292c0.004-0.001,0.004-0.001,0.004-0.001
			c0.012,0.064,0.021,0.128,0.033,0.188c0.01,0.053,0.016,0.107,0.021,0.158c0.078,0.533,0.142,1.066,0.188,1.6
			c0.06,0.649,0.093,1.297,0.101,1.948c0.032,2.526-0.355,5.053-1.118,7.46c-0.231,0.733-0.494,1.456-0.796,2.171
			c-0.867,2.051-2.024,3.953-3.416,5.658c-0.255,0.328-0.523,0.677-0.831,0.97c-0.076,0.082-0.148,0.163-0.224,0.242
			c-0.105,0.115-0.206,0.226-0.309,0.334c-0.409,0.437-0.844,0.847-1.289,1.245c-2.129,1.887-4.582,3.429-7.238,4.461
			c-0.085,0.033-0.17,0.061-0.254,0.083c-0.687,0.262-1.389,0.495-2.1,0.692c-0.187,0.051-0.375,0.102-0.567,0.15
			C1548.511,1241.488,1544.967,1241.572,1541.562,1240.924z"/>
		<path d="M828.516,1163.092c-0.838,0.282-1.658,0.603-2.463,0.973c-0.792,0.392-1.559,0.823-2.303,1.3
			c-0.674,0.459-1.324,0.942-1.95,1.463c-0.673,0.596-1.313,1.221-1.917,1.889c-0.508,0.592-0.985,1.202-1.437,1.835
			c-0.465,0.703-0.896,1.42-1.291,2.165c-0.343,0.699-0.648,1.403-0.933,2.127c-0.272,0.792-0.512,1.591-0.712,2.401
			c-0.172,0.833-0.304,1.664-0.398,2.512c-0.062,0.843-0.087,1.688-0.066,2.536c0.046,0.845,0.136,1.687,0.265,2.523
			c0.167,0.9,0.373,1.791,0.65,2.652c0.006,0.024,0.016,0.048,0.021,0.069c0.276,0.802,0.588,1.581,0.94,2.345
			c0.377,0.758,0.788,1.493,1.24,2.21c0.477,0.714,0.99,1.398,1.542,2.056c0.56,0.634,1.151,1.242,1.777,1.812
			c0.63,0.557,1.298,1.072,1.986,1.551c0.682,0.455,1.385,0.875,2.109,1.26c0.776,0.383,1.566,0.722,2.375,1.019
			c0.726,0.247,1.458,0.456,2.203,0.632c0.858,0.181,1.726,0.314,2.597,0.399c0.817,0.061,1.637,0.077,2.463,0.055
			c0.871-0.049,1.737-0.145,2.599-0.287c0.842-0.16,1.669-0.369,2.488-0.623c0.824-0.278,1.634-0.597,2.425-0.963
			c0.766-0.378,1.506-0.795,2.226-1.251c0.688-0.463,1.351-0.956,1.986-1.483c0.638-0.561,1.242-1.151,1.816-1.775
			c0.029-0.033,0.058-0.063,0.087-0.096c0.555-0.641,1.076-1.31,1.562-2.004c0.437-0.652,0.835-1.323,1.198-2.016
			c0.358-0.714,0.675-1.443,0.955-2.188c0.277-0.786,0.509-1.586,0.702-2.396c0.178-0.839,0.312-1.677,0.401-2.531
			c0.065-0.862,0.084-1.728,0.056-2.592c-0.046-0.86-0.142-1.712-0.278-2.56c-0.156-0.81-0.354-1.61-0.592-2.396
			c-0.283-0.856-0.612-1.693-0.99-2.514c-0.377-0.759-0.791-1.489-1.241-2.203c-0.504-0.748-1.04-1.463-1.622-2.155
			c-0.563-0.63-1.156-1.23-1.782-1.799c-0.611-0.525-1.247-1.018-1.906-1.486c-0.695-0.463-1.415-0.89-2.155-1.279
			c-0.669-0.328-1.353-0.627-2.055-0.896c-0.851-0.301-1.712-0.552-2.596-0.76c-0.826-0.17-1.654-0.292-2.491-0.374
			c-0.812-0.059-1.621-0.074-2.435-0.05c-0.849,0.047-1.686,0.139-2.525,0.272c-0.488,0.093-0.97,0.2-1.449,0.321
			C829.235,1162.884,828.875,1162.984,828.516,1163.092z M829.88,1205.063c-4.648-0.88-8.91-3.175-12.304-6.456
			c-2.785-2.689-4.834-6.128-6.013-9.804c-0.688-2.231-1.071-4.516-1.131-6.86c-0.058-2.304,0.279-4.607,0.875-6.832
			c1.21-4.519,3.879-8.62,7.396-11.683c3.547-3.09,7.959-5.003,12.607-5.651c4.387-0.608,8.917,0.142,12.949,1.935
			c4.09,1.819,7.583,4.86,10.068,8.567c1.752,2.608,2.944,5.546,3.546,8.611c0.026,0.075,0.046,0.152,0.062,0.229
			c0.001,0.004,0.002,0.007,0.003,0.01c0.017,0.096,0.034,0.195,0.048,0.292c0.004-0.001,0.004-0.001,0.004-0.001
			c0.012,0.064,0.021,0.128,0.033,0.188c0.01,0.053,0.016,0.107,0.021,0.158c0.079,0.533,0.142,1.066,0.188,1.6
			c0.06,0.649,0.093,1.297,0.101,1.948c0.032,2.526-0.355,5.053-1.118,7.46c-0.231,0.733-0.494,1.456-0.796,2.171
			c-0.867,2.051-2.024,3.953-3.416,5.658c-0.255,0.328-0.523,0.677-0.831,0.97c-0.076,0.082-0.148,0.163-0.224,0.242
			c-0.105,0.115-0.206,0.226-0.309,0.334c-0.409,0.437-0.844,0.847-1.289,1.245c-2.129,1.887-4.582,3.429-7.238,4.461
			c-0.085,0.033-0.17,0.061-0.254,0.083c-0.687,0.262-1.389,0.495-2.1,0.692c-0.187,0.051-0.375,0.102-0.567,0.15
			C836.829,1205.627,833.285,1205.711,829.88,1205.063z"/>
		<path d="M1762.105,1057.686c1.426,2.097,2.961,4.095,4.618,6.019c1.493,1.657,3.06,3.224,4.552,4.581
			c0.052,0.046,0.108,0.091,0.162,0.141c1.797,1.55,3.66,2.995,5.616,4.343c1.957,1.288,3.972,2.468,6.059,3.537
			c2.115,1.033,4.275,1.946,6.486,2.743c2.144,0.721,4.312,1.329,6.521,1.822c2.398,0.49,4.813,0.843,7.25,1.048
			c2.22,0.153,4.436,0.188,6.646,0.095c0.647-0.037,1.3-0.083,1.946-0.138c1.733-0.158,3.452-0.391,5.168-0.69
			c2.373-0.461,4.705-1.056,7.016-1.779c2.51-0.844,4.946-1.84,7.336-2.984c2.056-1.041,4.043-2.183,5.979-3.435
			c2.014-1.357,3.93-2.823,5.771-4.407c1.729-1.545,3.36-3.169,4.915-4.892c1.567-1.82,3.024-3.708,4.388-5.687
			c1.239-1.885,2.358-3.818,3.399-5.813c0.997-2.021,1.871-4.074,2.653-6.181c0.796-2.304,1.452-4.632,1.989-7.008
			c0.462-2.272,0.8-4.557,1.001-6.689c0.189-2.504,0.232-4.996,0.125-7.5c-0.158-2.423-0.456-4.812-0.879-7.198
			c-0.443-2.2-0.97-4.378-1.657-6.516c-0.807-2.423-1.742-4.777-2.828-7.086c-1.096-2.187-2.296-4.296-3.623-6.355
			c-1.276-1.882-2.63-3.723-4.107-5.42c-0.183-0.21-0.366-0.42-0.513-0.591c-0.041-0.045-0.078-0.088-0.119-0.133
			c-0.026-0.031-0.052-0.061-0.052-0.061c-1.552-1.742-3.249-3.355-4.859-4.782c-1.833-1.608-3.803-3.048-5.575-4.253
			c-1.868-1.214-3.79-2.321-5.766-3.344c-2.218-1.088-4.484-2.042-6.814-2.865c-2.047-0.675-4.114-1.252-6.216-1.717
			c-2.366-0.483-4.737-0.825-7.143-1.035c-2.235-0.153-4.466-0.188-6.706-0.098c-2.399,0.137-4.779,0.41-7.149,0.825
			c-2.536,0.491-5.029,1.141-7.492,1.936c-2.207,0.768-4.356,1.646-6.469,2.639c-2.146,1.068-4.227,2.234-6.196,3.501
			c-2.141,1.441-4.177,2.989-6.126,4.678c-1.681,1.514-3.267,3.112-4.779,4.795c-1.625,1.886-3.137,3.851-4.538,5.918
			c-1.128,1.735-2.158,3.523-3.115,5.363c-1.102,2.251-2.069,4.539-2.915,6.896c-0.707,2.141-1.308,4.292-1.8,6.49
			c-0.491,2.468-0.858,4.931-1.034,7.146c-0.162,2.449-0.18,4.88-0.068,7.329c0.165,2.362,0.462,4.692,0.876,7.025
			c0.457,2.255,1.031,4.474,1.719,6.675c0.789,2.335,1.706,4.608,2.762,6.839c-0.001-0.004-0.001-0.004-0.001-0.004
			C1759.602,1053.568,1760.792,1055.657,1762.105,1057.686z M1814.33,1086.256c-1.255,0.157-2.522,0.268-3.787,0.342
			c-2.611,0.135-5.212,0.104-7.815-0.097c-0.129-0.012-0.256-0.028-0.378-0.057c-0.595-0.05-1.192-0.108-1.784-0.174
			c-9.514-1.083-18.725-4.627-26.604-10.043c-3.873-2.664-7.375-5.802-10.52-9.288c-3.352-3.719-6.135-7.903-8.464-12.329
			c-2.271-4.317-3.873-8.967-5.007-13.704c-1.144-4.791-1.627-9.814-1.482-14.733c0.144-4.833,0.816-9.703,2.163-14.353
			c0.683-2.354,1.449-4.687,2.409-6.943c0.952-2.232,2.016-4.4,3.2-6.516c2.403-4.275,5.435-8.185,8.818-11.723
			c3.233-3.378,6.933-6.377,10.905-8.843c8.264-5.131,17.741-8.332,27.461-8.963c9.502-0.614,19.032,1.063,27.745,4.899
			c0.164,0.033,0.325,0.081,0.48,0.154c0.754,0.341,1.497,0.699,2.133,1.013c7.398,3.712,13.953,8.983,19.209,15.371
			c5.835,7.096,10.053,15.664,11.999,24.652c1.929,8.907,1.851,18.168-0.359,27.024c-0.466,1.861-1.025,3.693-1.659,5.504
			c-2.938,8.334-7.808,15.968-14.08,22.186c-6.092,6.035-13.508,10.66-21.566,13.573c-1.793,0.645-3.614,1.204-5.453,1.667
			C1819.405,1085.505,1816.875,1085.964,1814.33,1086.256z"/>
		<path d="M1599.074,651.961c-1.25,0.5-2.466,1.063-3.655,1.692c-1.268,0.709-2.485,1.491-3.66,2.347
			c-1.029,0.79-2.012,1.627-2.961,2.516c-1.013,1.001-1.963,2.045-2.859,3.154c-0.742,0.97-1.434,1.964-2.086,3
			c-0.716,1.223-1.365,2.473-1.95,3.76c-0.513,1.22-0.963,2.45-1.359,3.707c-0.363,1.297-0.674,2.596-0.911,3.921
			c-0.207,1.358-0.347,2.718-0.402,4.089c-0.024,1.245,0.018,2.488,0.12,3.731c0.15,1.42,0.381,2.824,0.695,4.217
			c0.372,1.476,0.824,2.916,1.363,4.335c0.505,1.223,1.06,2.411,1.681,3.579c0.686,1.204,1.427,2.364,2.233,3.489
			c0.834,1.103,1.726,2.154,2.671,3.163c0.937,0.951,1.918,1.843,2.95,2.685c1.018,0.801,2.072,1.537,3.169,2.225
			c1.179,0.705,2.395,1.348,3.651,1.918c0.482,0.205,0.967,0.406,1.455,0.591c0.139,0.05,0.279,0.104,0.414,0.155
			c0.614,0.228,1.235,0.439,1.862,0.633c0.256,0.073,0.512,0.146,0.77,0.214c0.964,0.247,1.932,0.455,2.915,0.627
			c1.327,0.204,2.655,0.333,3.996,0.399c1.393,0.035,2.78-0.01,4.168-0.126c1.461-0.164,2.899-0.408,4.331-0.731
			c1.327-0.342,2.63-0.751,3.917-1.228c1.404-0.566,2.763-1.208,4.095-1.933c1.091-0.631,2.146-1.316,3.176-2.047
			c1.149-0.872,2.248-1.798,3.292-2.792c0.953-0.945,1.852-1.94,2.698-2.987c0.723-0.932,1.398-1.903,2.03-2.901
			c0.709-1.177,1.341-2.378,1.915-3.621c0.535-1.233,1.002-2.486,1.406-3.771c0.357-1.247,0.657-2.503,0.884-3.78
			c0.229-1.46,0.369-2.923,0.423-4.402c0.017-1.388-0.037-2.77-0.166-4.151c-0.153-1.271-0.354-2.537-0.612-3.667
			c-0.013-0.052-0.027-0.108-0.041-0.161l-0.013-0.052c-0.332-1.333-0.739-2.637-1.215-3.923c-0.528-1.329-1.129-2.624-1.806-3.885
			c-0.657-1.166-1.376-2.295-2.159-3.385c-0.831-1.104-1.718-2.153-2.666-3.16c-1.003-1.02-2.064-1.977-3.18-2.875
			c-0.98-0.755-1.993-1.46-3.041-2.117c-1.153-0.689-2.336-1.307-3.557-1.867c-1.283-0.556-2.591-1.036-3.931-1.451
			c-1.193-0.334-2.39-0.607-3.607-0.828c-1.358-0.207-2.718-0.347-4.091-0.409c-1.392-0.031-2.775,0.013-4.165,0.137
			c-1.419,0.157-2.82,0.395-4.213,0.713C1601.695,651.055,1600.378,651.469,1599.074,651.961z M1605.415,716.414
			c-0.435-0.061-0.864-0.131-1.291-0.205c-1.956-0.342-3.887-0.85-5.749-1.512c-0.04-0.012-0.073-0.026-0.111-0.042
			c-0.551-0.199-1.094-0.411-1.64-0.633c-0.141-0.057-0.272-0.124-0.397-0.204c-5.288-2.289-10.017-5.834-13.659-10.363
			c-5.984-7.437-8.977-17.356-7.665-26.857c0.662-4.793,2.2-9.365,4.582-13.575c2.332-4.115,5.58-7.713,9.339-10.567
			c3.609-2.742,7.771-4.774,12.147-5.958c4.55-1.231,9.289-1.546,13.966-0.963c9.649,1.205,18.686,6.563,24.37,14.457
			c2.504,3.472,4.406,7.371,5.533,11.505c1.22,4.474,1.546,9.126,1.029,13.73c-0.595,5.281-2.447,10.385-5.285,14.865
			c-0.049,0.116-0.109,0.228-0.179,0.334c-2.882,4.462-6.777,8.248-11.301,11.039c-3.089,1.906-6.465,3.317-9.978,4.202
			C1614.663,716.792,1609.983,717.065,1605.415,716.414z"/>
		<path d="M1671.411,1034.972c-1.065,0.339-2.107,0.724-3.134,1.168c-1.043,0.485-2.048,1.017-3.032,1.614
			c-0.844,0.55-1.666,1.132-2.462,1.756c-0.807,0.67-1.578,1.38-2.316,2.13c-0.692,0.742-1.339,1.517-1.952,2.324
			c-0.651,0.906-1.253,1.844-1.805,2.818c-0.469,0.879-0.896,1.776-1.276,2.696c-0.408,1.06-0.754,2.134-1.041,3.23
			c-0.255,1.107-0.458,2.215-0.598,3.341c-0.1,1.075-0.153,2.146-0.143,3.23c0.045,1.165,0.153,2.314,0.324,3.465
			c0.197,1.093,0.449,2.165,0.755,3.23c0.301,0.959,0.649,1.899,1.043,2.828c0.493,1.074,1.044,2.111,1.655,3.122
			c0.571,0.88,1.18,1.724,1.826,2.549c0.637,0.763,1.314,1.49,2.018,2.192c0.816,0.767,1.664,1.48,2.558,2.156
			c0.825,0.594,1.674,1.137,2.552,1.646c1.005,0.544,2.033,1.031,3.092,1.462c0.307,0.115,0.617,0.226,0.926,0.334
			c0.585,0.187,1.177,0.356,1.769,0.512c1.151,0.267,2.302,0.477,3.472,0.631c1.086,0.097,2.171,0.15,3.263,0.154
			c1.239-0.045,2.46-0.16,3.688-0.336c1-0.185,1.981-0.41,2.964-0.677c1.018-0.319,2.01-0.681,2.993-1.091
			c1.047-0.483,2.057-1.008,3.049-1.592c0.898-0.572,1.766-1.176,2.599-1.831c0.813-0.672,1.578-1.377,2.316-2.13
			c0.761-0.823,1.472-1.681,2.141-2.576c0.552-0.785,1.068-1.59,1.548-2.427c0.51-0.937,0.964-1.901,1.371-2.891
			c0.402-1.055,0.742-2.12,1.032-3.209c0.256-1.118,0.459-2.242,0.603-3.38c0.11-1.152,0.16-2.296,0.143-3.453
			c-0.045-0.987-0.133-1.97-0.269-2.952c-0.184-1.1-0.415-2.192-0.684-3.114c-0.038-0.135-0.078-0.266-0.12-0.401
			c-0.329-1.026-0.71-2.025-1.141-3.01c-0.473-1.009-0.992-1.98-1.569-2.929c-0.541-0.836-1.115-1.641-1.727-2.421
			c-0.668-0.811-1.375-1.583-2.12-2.319c-0.795-0.742-1.619-1.436-2.489-2.089c-0.868-0.619-1.765-1.188-2.692-1.718
			c-0.919-0.484-1.855-0.927-2.816-1.327c-1.042-0.394-2.095-0.733-3.178-1.025c-1.138-0.262-2.279-0.461-3.442-0.602
			c-1.084-0.091-2.166-0.13-3.254-0.119c-1.101,0.047-2.184,0.15-3.277,0.302c-0.764,0.137-1.519,0.3-2.271,0.489
			C1672.003,1034.81,1671.707,1034.889,1671.411,1034.972z M1669.68,1086.882c-0.086-0.031-0.174-0.057-0.259-0.087
			c-0.568-0.176-1.125-0.373-1.68-0.586c0.003-0.004,0.003-0.004,0.005-0.009c-0.073-0.022-0.146-0.049-0.216-0.075
			c-0.024-0.009-0.045-0.018-0.066-0.028c-0.079-0.032-0.155-0.072-0.229-0.113c-3.411-1.419-6.568-3.465-9.204-6.05
			c-3.411-3.348-6.128-7.508-7.543-12.093c-0.739-2.403-1.274-4.88-1.393-7.399c-0.112-2.253-0.018-4.518,0.386-6.742
			c0.834-4.61,2.683-8.964,5.513-12.708c2.807-3.716,6.48-6.66,10.657-8.706c2.196-1.076,4.567-1.885,6.967-2.356
			c2.446-0.483,4.9-0.652,7.385-0.562c4.834,0.177,9.571,1.736,13.718,4.178c4.012,2.362,7.411,5.797,9.848,9.754
			c1.332,2.165,2.364,4.479,3.113,6.91c0.963,3.219,1.386,6.559,1.233,9.899c0.018,0.129,0.022,0.265,0.013,0.405
			c-0.03,0.471-0.071,0.942-0.12,1.407c-0.006,0.05-0.009,0.095-0.016,0.142c-0.147,1.272-0.375,2.532-0.68,3.781
			c-1.185,4.721-3.5,9.137-6.79,12.733c-3.819,4.175-8.724,7.162-14.175,8.658c-0.184,0.05-0.369,0.097-0.557,0.144
			C1680.389,1088.688,1674.789,1088.503,1669.68,1086.882z"/>
		<path d="M1874.873,1436.814c-1.014,0.423-1.994,0.892-2.686,1.281c-0.916,0.531-1.793,1.101-2.646,1.72
			c-0.81,0.627-1.586,1.286-2.33,1.986c-0.718,0.715-1.397,1.465-2.045,2.251c-0.63,0.812-1.216,1.653-1.76,2.528
			c-0.464,0.796-0.889,1.608-1.283,2.445c-0.397,0.912-0.754,1.837-1.053,2.784c-0.024,0.069-0.044,0.134-0.069,0.199
			c-0.017,0.064-0.035,0.127-0.052,0.191c-0.3,1.003-0.521,2.027-0.691,3.057c-0.144,0.975-0.231,1.954-0.269,2.936
			c-0.013,1.068,0.028,2.13,0.13,3.195c0.13,1.103,0.322,2.19,0.583,3.27c0.265,1.009,0.586,2,0.961,2.974
			c0.396,0.969,0.846,1.913,1.352,2.831c0.536,0.937,1.12,1.84,1.761,2.706c0.593,0.778,1.229,1.519,1.84,2.163
			c0.026,0.027,0.051,0.054,0.075,0.078l0.031,0.033c0.669,0.67,1.368,1.306,2.098,1.909c0.774,0.599,1.573,1.151,2.36,1.65
			c0.873,0.522,1.761,0.999,2.416,1.313c0.213,0.095,0.427,0.193,0.464,0.206c0.932,0.415,1.896,0.754,2.867,1.058
			c1.062,0.3,2.13,0.547,3.219,0.732c1.018,0.14,2.032,0.234,3.061,0.279c1.008,0.009,2.005-0.023,3.006-0.112
			c1.146-0.133,2.272-0.335,3.391-0.602c1.004-0.272,1.986-0.597,2.958-0.968c0.906-0.38,1.787-0.799,2.655-1.255l0.26-0.147
			c0.85-0.5,1.678-1.039,2.482-1.62c0.761-0.589,1.491-1.21,2.198-1.863c0.712-0.706,1.387-1.444,2.032-2.211
			c0.687-0.882,1.323-1.788,1.909-2.733c0.473-0.817,0.906-1.645,1.307-2.496c0.429-0.991,0.802-1.998,1.128-3.033
			c0.266-0.935,0.48-1.879,0.655-2.836c0.159-1.049,0.262-2.095,0.31-3.157c0.021-1.096-0.017-2.188-0.085-2.973
			c-0.016-0.137-0.029-0.278-0.045-0.415c-0.119-1.031-0.308-2.048-0.547-3.056c-0.266-1.024-0.585-2.027-0.96-3.015
			c-0.403-0.982-0.852-1.937-1.27-2.685c-0.034-0.062-0.068-0.124-0.102-0.186c-0.523-0.9-1.091-1.769-1.704-2.609
			c-0.603-0.787-1.242-1.542-1.921-2.265l-0.024-0.024c-0.715-0.732-1.473-1.413-2.266-2.059c-0.753-0.586-1.532-1.131-2.335-1.641
			l-0.075-0.048c-0.858-0.522-1.752-0.976-2.664-1.399c-0.933-0.407-1.886-0.771-2.666-1.012c-0.073-0.023-0.144-0.042-0.217-0.064
			l-0.011-0.001c-1.052-0.303-2.118-0.542-3.196-0.727c-0.978-0.143-1.955-0.234-2.944-0.275c-1.072-0.012-2.134,0.026-3.203,0.128
			c-1.098,0.132-2.178,0.322-3.257,0.575C1876.938,1436.086,1875.901,1436.418,1874.873,1436.814z M1887.344,1487.001
			c-4.107,0.5-8.239,0.135-12.188-1.11c-2.841-0.894-5.512-2.25-7.913-3.975c-0.989-0.701-1.935-1.464-2.824-2.286
			c-0.086-0.078-0.168-0.165-0.239-0.255c-2.854-2.716-5.149-6.022-6.648-9.703c-1.68-4.106-2.364-8.512-2.072-12.937
			c0.291-4.41,1.758-8.835,4.059-12.601c2.321-3.805,5.507-7.019,9.285-9.381c3.961-2.478,8.488-3.845,13.129-4.198
			c5.86-0.449,11.792,1.158,16.531,4.048c2.067,1.256,3.938,2.762,5.603,4.453c0.026,0.027,0.051,0.054,0.076,0.081l0.061,0.066
			c1.64,1.709,3.058,3.614,4.213,5.635c0.009,0.02,0.021,0.039,0.03,0.059c0.04,0.068,0.079,0.136,0.08,0.139
			c0.963,1.746,1.771,3.568,2.349,5.481c0.523,1.738,0.867,3.499,1.072,5.298c0.474,4.533-0.112,9.258-1.851,13.488
			c-1.853,4.5-4.736,8.606-8.573,11.635c-1.17,0.922-2.381,1.769-3.614,2.472c-0.039,0.021-0.078,0.042-0.117,0.066l-0.088,0.048
			c-0.182,0.101-0.369,0.2-0.552,0.298c-0.124,0.098-0.258,0.184-0.399,0.256c-1.914,0.99-3.955,1.765-6.056,2.294
			C1889.593,1486.653,1888.471,1486.866,1887.344,1487.001z"/>
		<path d="M1677.897,1255.112c-1.079,0.313-2.151,0.638-3.212,1.017c-0.598,0.218-1.197,0.432-1.791,0.666
			c-0.274,0.106-0.544,0.211-0.816,0.324c-0.144,0.062-0.288,0.124-0.436,0.184c-0.276,0.144-0.582,0.254-0.868,0.371
			c-2.054,0.933-4.051,1.959-6.004,3.101c-2.046,1.257-4.006,2.623-5.906,4.096c-1.714,1.4-3.353,2.874-4.925,4.439
			c-1.539,1.605-2.991,3.28-4.362,5.039c-1.475,1.978-2.83,4.022-4.062,6.139c-1.192,2.159-2.251,4.362-3.194,6.64
			c-0.868,2.237-1.608,4.501-2.234,6.814c-0.574,2.285-1.025,4.588-1.291,6.625c-0.273,2.246-0.399,4.497-0.411,6.763
			c0.034,2.432,0.204,4.846,0.508,7.258c0.365,2.464,0.868,4.886,1.517,7.286c0.652,2.251,1.428,4.444,2.317,6.606
			c0.944,2.17,2.006,4.265,3.186,6.313c1.305,2.146,2.717,4.201,4.255,6.184c1.417,1.765,2.916,3.461,4.41,4.929
			c0.153,0.151,0.308,0.297,0.461,0.444l0.079,0.077c1.661,1.57,3.403,3.038,5.081,4.31c1.818,1.341,3.703,2.58,5.658,3.713
			c2.078,1.164,4.215,2.199,6.422,3.108c1.621,0.649,3.272,1.22,4.945,1.722c0.372,0.107,0.751,0.211,1.129,0.313
			c2.319,0.592,4.663,1.044,6.736,1.349c2.647,0.331,5.286,0.501,7.95,0.516c2.38-0.051,4.733-0.224,7.09-0.529
			c2.392-0.373,4.753-0.864,7.091-1.494c2.39-0.703,4.72-1.527,7.013-2.498c2.24-1.002,4.399-2.125,6.506-3.375
			c1.834-1.145,3.596-2.368,5.078-3.494c0.177-0.137,0.346-0.276,0.523-0.414l0.148-0.119c1.722-1.369,3.328-2.871,4.884-4.425
			c1.491-1.563,2.891-3.192,4.224-4.893c1.449-1.964,2.794-3.976,4.011-6.049c1.114-2.013,2.118-4.065,3.033-6.177
			c0.945-2.36,1.747-4.758,2.412-7.211c0.534-2.193,0.958-4.4,1.273-6.639c0.267-2.327,0.435-4.65,0.458-6.797
			c-0.021-2.647-0.21-5.267-0.553-7.837c-0.361-2.376-0.852-4.723-1.493-7.044c-0.659-2.245-1.444-4.433-2.348-6.594
			c-0.955-2.141-2.015-4.215-3.183-6.243c-1.285-2.11-2.675-4.138-4.186-6.087c-1.442-1.792-2.976-3.494-4.615-5.107
			c-1.67-1.594-3.414-3.083-5.252-4.486c-1.813-1.335-3.689-2.569-5.57-3.672c-0.135-0.077-0.272-0.154-0.347-0.198
			c-0.06-0.033-0.12-0.066-0.182-0.103c-0.025-0.012-0.047-0.025-0.047-0.025c-1.865-1.04-3.798-1.955-5.498-2.681
			c-2.277-0.925-4.589-1.708-6.962-2.364c-2.218-0.558-4.443-1.01-6.408-1.298c-2.591-0.33-5.177-0.506-7.785-0.521
			c-2.417,0.038-4.816,0.204-7.219,0.517c-2.09,0.311-4.144,0.719-6.186,1.234
			C1678.599,1254.925,1678.248,1255.017,1677.897,1255.112z M1704.081,1364.982c-4.108,0.82-8.299,1.178-12.484,1.116
			c-5.365-0.077-10.736-0.912-15.888-2.456c-0.161-0.048-0.321-0.097-0.483-0.149c-2.526-0.781-4.996-1.732-7.385-2.851
			c-5.867-2.747-11.324-6.44-15.925-10.92c-0.083-0.079-0.166-0.159-0.221-0.215c-6.957-6.747-12.129-15.156-15.11-24.369
			c-2.964-9.159-3.598-19.123-1.803-28.579c1.799-9.468,5.911-18.577,11.979-26.078c3.016-3.728,6.443-7.118,10.27-10.007
			c1.985-1.502,4.049-2.864,6.195-4.124c1.027-0.607,2.086-1.16,3.153-1.696c0.526-0.266,1.065-0.513,1.599-0.766
			c0.336-0.155,0.669-0.321,1.009-0.443c0.367-0.193,0.767-0.342,1.153-0.502c2.293-0.941,4.63-1.738,7.021-2.392
			c4.692-1.286,9.557-1.974,14.419-2.052c5.04-0.079,10.057,0.486,14.958,1.662c4.542,1.093,8.921,2.764,13.074,4.89
			c0.702,0.357,1.385,0.742,1.811,0.987c4.223,2.39,8.186,5.265,11.692,8.622c3.543,3.388,6.658,7.182,9.26,11.338
			c2.544,4.063,4.574,8.408,6.101,12.95c1.526,4.539,2.411,9.32,2.761,14.095c0.698,9.529-0.993,19.382-4.942,28.093
			c-1.846,4.071-4.09,7.931-6.769,11.507c-0.084,0.196-0.196,0.387-0.333,0.563c-4.697,6.095-10.593,11.216-17.25,15.068
			c-1.882,1.086-3.83,2.056-5.798,2.915c-3.01,1.304-6.11,2.37-9.288,3.171C1705.937,1364.589,1705.014,1364.796,1704.081,1364.982z
			"/>
		<path d="M1567.141,1390.968c-0.95,0.325-1.874,0.691-2.788,1.111c-0.911,0.448-1.791,0.945-2.653,1.485
			c-0.895,0.6-1.755,1.236-2.583,1.923c-0.814,0.717-1.591,1.462-2.325,2.259c-0.705,0.808-1.363,1.642-1.984,2.522
			c-0.548,0.828-1.058,1.676-1.526,2.555c-0.466,0.934-0.884,1.881-1.247,2.855c-0.337,0.975-0.619,1.963-0.85,2.959
			c-0.194,0.954-0.339,1.911-0.438,2.871c-0.083,1.071-0.107,2.138-0.074,3.209c0.068,1.17,0.196,2.325,0.398,3.48
			c0.184,0.907,0.41,1.804,0.674,2.69c0.366,1.114,0.791,2.197,1.285,3.26c0.476,0.96,0.998,1.885,1.574,2.786
			c0.413,0.608,0.846,1.208,1.303,1.786c0.17,0.217,0.358,0.418,0.527,0.635l0.062,0.07c0.67,0.759,1.38,1.474,2.123,2.155
			c0.84,0.727,1.713,1.409,2.628,2.039c0.827,0.541,1.671,1.037,2.547,1.495c0.913,0.445,1.842,0.846,2.795,1.199
			c0.945,0.322,1.898,0.598,2.875,0.823c1.022,0.214,2.052,0.37,3.089,0.468c1.006,0.077,2.014,0.101,3.018,0.067
			c1.091-0.056,2.171-0.176,3.242-0.357c1.042-0.196,2.064-0.45,3.077-0.76c0.453-0.147,0.902-0.309,1.344-0.48
			c0.547-0.216,1.086-0.444,1.618-0.69c0.991-0.483,1.946-1.024,2.875-1.622c0.869-0.586,1.701-1.215,2.502-1.892
			c0.759-0.67,1.478-1.378,2.169-2.127c0.683-0.777,1.318-1.586,1.913-2.433c0.573-0.864,1.098-1.753,1.58-2.668
			c0.434-0.885,0.819-1.783,1.167-2.702c0.353-1.028,0.649-2.063,0.897-3.124c0.21-1.036,0.364-2.073,0.466-3.126
			c0.07-0.975,0.097-1.942,0.073-2.919c0-0.089-0.005-0.181-0.009-0.272c-0.066-1.041-0.181-2.073-0.355-3.101
			c-0.205-1.05-0.469-2.082-0.786-3.104c-0.325-0.968-0.702-1.919-1.13-2.85c-0.475-0.971-1.007-1.906-1.588-2.813
			c-0.584-0.862-1.207-1.684-1.876-2.484c-0.706-0.798-1.453-1.556-2.243-2.277c-0.759-0.658-1.544-1.269-2.363-1.853
			c-0.855-0.582-1.747-1.103-2.659-1.586c-0.929-0.464-1.874-0.871-2.846-1.238c-1.015-0.345-2.045-0.635-3.088-0.873
			c-0.971-0.189-1.947-0.337-2.933-0.437c-0.986-0.071-1.968-0.094-2.955-0.068c-1.098,0.058-2.187,0.169-3.27,0.345
			c-0.581,0.109-1.157,0.236-1.729,0.38C1568.154,1390.668,1567.646,1390.811,1567.141,1390.968z M1578.493,1442.031
			c-0.09,0.011-0.177,0.019-0.266,0.019c-3.038,0.398-6.139,0.311-9.165-0.302c-4.503-0.91-8.694-2.877-12.303-5.718
			c-0.967-0.762-1.87-1.606-2.734-2.487c-0.361-0.373-0.788-0.77-1.094-1.205c-0.08-0.099-0.164-0.196-0.245-0.294
			c-0.381-0.453-0.746-0.914-1.096-1.39c-5.5-7.444-7.032-17.501-3.984-26.238c1.61-4.609,4.387-8.711,8.004-11.978
			c3.407-3.073,7.556-5.246,11.991-6.386c4.013-1.034,8.357-1.156,12.415-0.331c1.916,0.389,3.766,0.943,5.573,1.682
			c1.804,0.74,3.502,1.707,5.07,2.763c0.028,0.023,0.059,0.041,0.09,0.063l0.081,0.054c3.596,2.492,6.594,5.792,8.728,9.609
			c1.351,2.416,2.306,5.014,2.886,7.698c0.053,0.124,0.094,0.258,0.119,0.4c0.046,0.255,0.101,0.505,0.135,0.756
			c0.02,0.095,0.041,0.19,0.057,0.286c0.205,1.165,0.31,2.348,0.363,3.533c0.145,3.859-0.474,7.676-1.828,11.297
			c-1.862,4.962-5.173,9.372-9.388,12.582c-3.024,2.339-6.596,4.051-10.325,4.99
			C1580.559,1441.692,1579.526,1441.893,1578.493,1442.031z"/>
	</g>
</g>
</svg>
